<?xml version="1.0" encoding="UTF-8" standalone="no"?>
<!-- Created with Inkscape (http://www.inkscape.org/) -->

<svg
   xmlns:dc="http://purl.org/dc/elements/1.1/"
   xmlns:cc="http://creativecommons.org/ns#"
   xmlns:rdf="http://www.w3.org/1999/02/22-rdf-syntax-ns#"
   xmlns:svg="http://www.w3.org/2000/svg"
   xmlns="http://www.w3.org/2000/svg"
   xmlns:xlink="http://www.w3.org/1999/xlink"
   version="1.1"
   width="286"
   height="51"
   id="svg3962">
  <defs
     id="defs3964">
    <linearGradient
       x1="476.24561"
       y1="767.49622"
       x2="476.24561"
       y2="652.08875"
       id="linearGradient5377"
       xlink:href="#linearGradient5371"
       gradientUnits="userSpaceOnUse" />
    <linearGradient
       id="linearGradient5371">
      <stop
         id="stop5373"
         style="stop-color:#000000;stop-opacity:1"
         offset="0" />
      <stop
         id="stop5375"
         style="stop-color:#000000;stop-opacity:0.44295302"
         offset="1" />
    </linearGradient>
    <linearGradient
       x1="476.24561"
       y1="767.49622"
       x2="476.24561"
       y2="512.84534"
       id="linearGradient5379"
       xlink:href="#linearGradient5371"
       gradientUnits="userSpaceOnUse" />
    <linearGradient
       id="linearGradient3849">
      <stop
         id="stop3851"
         style="stop-color:#000000;stop-opacity:1"
         offset="0" />
      <stop
         id="stop3853"
         style="stop-color:#000000;stop-opacity:0.44295302"
         offset="1" />
    </linearGradient>
    <linearGradient
       x1="476.24561"
       y1="767.49622"
       x2="476.24561"
       y2="512.84534"
       id="linearGradient5381"
       xlink:href="#linearGradient5371"
       gradientUnits="userSpaceOnUse" />
    <linearGradient
       id="linearGradient3856">
      <stop
         id="stop3858"
         style="stop-color:#000000;stop-opacity:1"
         offset="0" />
      <stop
         id="stop3860"
         style="stop-color:#000000;stop-opacity:0.44295302"
         offset="1" />
    </linearGradient>
    <linearGradient
       x1="476.24561"
       y1="767.49622"
       x2="476.24561"
       y2="512.84534"
       id="linearGradient5383"
       xlink:href="#linearGradient5371"
       gradientUnits="userSpaceOnUse" />
    <linearGradient
       id="linearGradient3863">
      <stop
         id="stop3865"
         style="stop-color:#000000;stop-opacity:1"
         offset="0" />
      <stop
         id="stop3867"
         style="stop-color:#000000;stop-opacity:0.44295302"
         offset="1" />
    </linearGradient>
    <linearGradient
       x1="476.24561"
       y1="767.49622"
       x2="476.24561"
       y2="512.84534"
       id="linearGradient5385"
       xlink:href="#linearGradient5371"
       gradientUnits="userSpaceOnUse" />
    <linearGradient
       id="linearGradient3870">
      <stop
         id="stop3872"
         style="stop-color:#000000;stop-opacity:1"
         offset="0" />
      <stop
         id="stop3874"
         style="stop-color:#000000;stop-opacity:0.44295302"
         offset="1" />
    </linearGradient>
    <linearGradient
       x1="476.24561"
       y1="767.49622"
       x2="476.24561"
       y2="512.84534"
       id="linearGradient5387"
       xlink:href="#linearGradient5371"
       gradientUnits="userSpaceOnUse" />
    <linearGradient
       id="linearGradient3877">
      <stop
         id="stop3879"
         style="stop-color:#000000;stop-opacity:1"
         offset="0" />
      <stop
         id="stop3881"
         style="stop-color:#000000;stop-opacity:0.44295302"
         offset="1" />
    </linearGradient>
    <linearGradient
       x1="476.24561"
       y1="767.49622"
       x2="476.24561"
       y2="512.84534"
       id="linearGradient5389"
       xlink:href="#linearGradient5371"
       gradientUnits="userSpaceOnUse" />
    <linearGradient
       id="linearGradient3884">
      <stop
         id="stop3886"
         style="stop-color:#000000;stop-opacity:1"
         offset="0" />
      <stop
         id="stop3888"
         style="stop-color:#000000;stop-opacity:0.44295302"
         offset="1" />
    </linearGradient>
    <linearGradient
       x1="476.24561"
       y1="767.49622"
       x2="476.24561"
       y2="512.84534"
       id="linearGradient5391"
       xlink:href="#linearGradient5371"
       gradientUnits="userSpaceOnUse" />
    <linearGradient
       id="linearGradient3891">
      <stop
         id="stop3893"
         style="stop-color:#000000;stop-opacity:1"
         offset="0" />
      <stop
         id="stop3895"
         style="stop-color:#000000;stop-opacity:0.44295302"
         offset="1" />
    </linearGradient>
    <linearGradient
       x1="476.24561"
       y1="767.49622"
       x2="476.24561"
       y2="512.84534"
       id="linearGradient5393"
       xlink:href="#linearGradient5371"
       gradientUnits="userSpaceOnUse" />
    <linearGradient
       id="linearGradient3898">
      <stop
         id="stop3900"
         style="stop-color:#000000;stop-opacity:1"
         offset="0" />
      <stop
         id="stop3902"
         style="stop-color:#000000;stop-opacity:0.44295302"
         offset="1" />
    </linearGradient>
    <linearGradient
       x1="476.24561"
       y1="767.49622"
       x2="476.24561"
       y2="512.84534"
       id="linearGradient5395"
       xlink:href="#linearGradient5371"
       gradientUnits="userSpaceOnUse" />
    <linearGradient
       id="linearGradient3905">
      <stop
         id="stop3907"
         style="stop-color:#000000;stop-opacity:1"
         offset="0" />
      <stop
         id="stop3909"
         style="stop-color:#000000;stop-opacity:0.44295302"
         offset="1" />
    </linearGradient>
    <linearGradient
       x1="476.24561"
       y1="767.49622"
       x2="476.24561"
       y2="512.84534"
       id="linearGradient5397"
       xlink:href="#linearGradient5371"
       gradientUnits="userSpaceOnUse" />
    <linearGradient
       id="linearGradient3912">
      <stop
         id="stop3914"
         style="stop-color:#000000;stop-opacity:1"
         offset="0" />
      <stop
         id="stop3916"
         style="stop-color:#000000;stop-opacity:0.44295302"
         offset="1" />
    </linearGradient>
    <linearGradient
       x1="476.24561"
       y1="767.49622"
       x2="476.24561"
       y2="512.84534"
       id="linearGradient5399"
       xlink:href="#linearGradient5371"
       gradientUnits="userSpaceOnUse" />
    <linearGradient
       id="linearGradient3919">
      <stop
         id="stop3921"
         style="stop-color:#000000;stop-opacity:1"
         offset="0" />
      <stop
         id="stop3923"
         style="stop-color:#000000;stop-opacity:0.44295302"
         offset="1" />
    </linearGradient>
    <linearGradient
       x1="476.24561"
       y1="767.49622"
       x2="476.24561"
       y2="512.84534"
       id="linearGradient5401"
       xlink:href="#linearGradient5371"
       gradientUnits="userSpaceOnUse" />
    <linearGradient
       id="linearGradient3926">
      <stop
         id="stop3928"
         style="stop-color:#000000;stop-opacity:1"
         offset="0" />
      <stop
         id="stop3930"
         style="stop-color:#000000;stop-opacity:0.44295302"
         offset="1" />
    </linearGradient>
    <linearGradient
       x1="476.24561"
       y1="767.49622"
       x2="476.24561"
       y2="512.84534"
       id="linearGradient5403"
       xlink:href="#linearGradient5371"
       gradientUnits="userSpaceOnUse" />
    <linearGradient
       id="linearGradient3933">
      <stop
         id="stop3935"
         style="stop-color:#000000;stop-opacity:1"
         offset="0" />
      <stop
         id="stop3937"
         style="stop-color:#000000;stop-opacity:0.44295302"
         offset="1" />
    </linearGradient>
    <linearGradient
       x1="476.24561"
       y1="767.49622"
       x2="476.24561"
       y2="512.84534"
       id="linearGradient5405"
       xlink:href="#linearGradient5371"
       gradientUnits="userSpaceOnUse" />
    <linearGradient
       id="linearGradient3940">
      <stop
         id="stop3942"
         style="stop-color:#000000;stop-opacity:1"
         offset="0" />
      <stop
         id="stop3944"
         style="stop-color:#000000;stop-opacity:0.44295302"
         offset="1" />
    </linearGradient>
  </defs>
  <metadata
     id="metadata3967">
    <rdf:RDF>
      <cc:Work
         rdf:about="">
        <dc:format>image/svg+xml</dc:format>
        <dc:type
           rdf:resource="http://purl.org/dc/dcmitype/StillImage" />
        <dc:title></dc:title>
      </cc:Work>
    </rdf:RDF>
  </metadata>
  <g
     id="text3145"
     style="font-size:50.19886398px;font-style:normal;font-weight:normal;line-height:125%;letter-spacing:0px;word-spacing:0px;fill:#073642;fill-opacity:1;stroke:none;font-family:Sans">
    <path
       d="m 61.880704,19.46296 c -0.205136,0.118085 -0.330321,1.287516 -0.375557,3.508298 -0.04525,2.220825 -0.08491,4.78465 -0.118989,7.691482 -0.03409,2.90686 -0.136964,5.448375 -0.308625,7.624552 -0.05206,0.921235 -0.07065,1.94565 -0.05578,3.073246 0.01487,1.127602 -0.12643,2.05162 -0.423897,2.772057 -0.297473,0.720437 -0.940753,0.930526 -1.929842,0.630267 -0.481067,-0.119221 -0.78644,-0.407861 -0.916118,-0.86592 -0.129679,-0.458058 -0.20916,-0.972589 -0.238441,-1.543595 0.06321,-3.192539 0.09296,-6.84709 0.08924,-10.963663 -0.0037,-4.116546 -0.01859,-7.912395 -0.04462,-11.387558 -0.02603,-3.475114 -0.0409,-5.846823 -0.04462,-7.115132 -0.03346,-1.117924 -0.05438,-2.433535 -0.06275,-3.9468364 -0.0084,-1.51323 0.196609,-2.389606 0.614929,-2.6291305 0.403753,-0.1886704 1.297405,-0.2797711 2.680957,-0.2733024 1.383545,0.00655 2.84239,0.1385483 4.376541,0.3960078 1.534134,0.2575357 2.728974,0.6684175 3.584524,1.2326464 0.511381,0.4288133 0.856493,1.0646568 1.035337,1.9075323 0.178819,0.8429458 0.28549,1.5791858 0.320015,2.2087218 0.109795,1.285315 0.01567,2.404316 -0.282366,3.357006 -0.298064,0.952748 -0.856519,1.858407 -1.675365,2.716978 -0.503542,0.465134 -1.242261,0.767562 -2.21616,0.907285 -0.973915,0.139774 -1.872524,0.237692 -2.69583,0.293752 -0.823317,0.05611 -1.260846,0.191214 -1.312589,0.405306 z m -0.953766,-3.965659 c 0.05329,0.238005 0.487724,0.392318 1.303294,0.462939 0.815559,0.07068 1.692477,0.03535 2.630757,-0.105974 0.938264,-0.141271 1.618109,-0.410853 2.039537,-0.808749 0.341964,-0.462212 0.549031,-1.282116 0.621202,-2.459713 0.07215,-1.177533 -0.08472,-2.047634 -0.470607,-2.6103071 -0.398807,-0.462284 -1.112737,-0.77029 -2.141791,-0.9240188 -1.02907,-0.1536578 -1.988413,-0.190222 -2.878031,-0.1096928 -0.889628,0.0806 -1.324679,0.2411107 -1.305154,0.4815313 -0.113996,0.215469 -0.137004,1.0019074 -0.06902,2.3593164 0.06797,1.357475 0.157911,2.595696 0.269816,3.714668 z"
       id="path3193"
       style="fill:#073642;font-family:Happy Fox Condensed;-inkscape-font-specification:Happy Fox Condensed" />
    <path
       d="m 78.824346,8.0679647 c 0.36602,0.3012245 0.637927,0.8785032 0.815721,1.7318377 0.177776,0.8534046 0.324187,1.6816746 0.439234,2.4848126 0.61701,3.689597 1.202655,7.504658 1.756938,11.445194 0.55426,3.940577 1.2905,7.856034 2.208722,11.746383 0.409937,1.566609 0.769691,3.114386 1.07926,4.643334 0.309541,1.528957 0.368106,2.675149 0.175695,3.438579 -1.618906,0.918208 -2.647968,0.713232 -3.087191,-0.61493 -0.439246,-1.328158 -0.815732,-2.963782 -1.129459,-4.906874 -0.359765,-1.713006 -0.66932,-3.294248 -0.928668,-4.743733 -0.259367,-1.449461 -0.568922,-2.729514 -0.928666,-3.840163 -0.400549,0.133876 -0.892073,0.192441 -1.474574,0.175693 -0.582515,-0.01672 -1.111687,-0.0084 -1.587518,0.0251 -0.301194,1.041627 -0.564735,2.183635 -0.790622,3.426028 -0.225896,1.242416 -0.414139,2.50992 -0.564729,3.802516 -0.131775,1.429609 -0.257271,2.987844 -0.376488,4.674708 -0.119225,1.686871 -0.345116,2.605079 -0.677675,2.754628 -0.424596,0.178832 -0.868013,0.260404 -1.330254,0.244717 -0.462244,-0.01569 -0.805264,-0.147458 -1.029062,-0.395312 -0.511395,-0.873239 -0.743561,-1.850012 -0.696501,-2.930322 0.04706,-1.080303 0.128633,-2.144922 0.244717,-3.19386 0.100396,-1.420183 0.301188,-2.909395 0.602378,-4.467642 0.301188,-1.558224 0.552179,-3.097635 0.752974,-4.618236 0.09822,-0.757604 0.387019,-2.209633 0.866383,-4.356089 0.479358,-2.146417 0.961508,-4.2566 1.446452,-6.330554 0.484935,-2.073902 0.784885,-3.380913 0.899851,-3.921038 0.145012,-0.893621 0.345804,-1.911839 0.602377,-3.054655 0.256563,-1.142751 0.602372,-2.0680084 1.03743,-2.7757767 0.435045,-0.7076962 0.992802,-0.8558112 1.673275,-0.4443456 z M 77.368598,21.772078 c -0.169427,0.781233 -0.307472,1.465183 -0.414137,2.051853 -0.106678,0.586711 -0.219623,1.207913 -0.338837,1.863608 0.372298,0.02512 0.669304,0.06277 0.891019,0.112946 0.221702,0.05022 0.543807,-0.03763 0.966315,-0.263541 -0.0011,-0.683931 -0.06171,-1.650246 -0.181969,-2.898947 -0.120274,-1.248658 -0.293876,-1.989081 -0.520806,-2.221271 -0.05753,0.01885 -0.130733,0.207092 -0.219618,0.56473 -0.0889,0.357686 -0.149555,0.621226 -0.181967,0.790622 z"
       id="path3195"
       style="fill:#073642;font-family:Happy Fox Condensed;-inkscape-font-specification:Happy Fox Condensed" />
    <path
       d="m 95.378971,22.324259 c 0.603415,0.86594 1.203701,1.807156 1.800862,2.823649 0.597137,1.016532 1.034279,2.18364 1.311428,3.501326 0.26771,1.546747 0.435038,3.272309 0.501982,5.176692 0.06692,1.904403 0.08365,3.742911 0.0502,5.515528 0.01149,0.919259 0.02613,1.766353 0.04392,2.541284 0.01776,0.774937 -0.03034,1.232995 -0.14432,1.374177 -0.313752,0.580418 -0.778086,0.950629 -1.393002,1.110635 -0.614939,0.160007 -1.154569,-0.210204 -1.618891,-1.110635 -0.188254,-0.398447 -0.263552,-1.094947 -0.225893,-2.089501 0.03764,-0.994547 -0.03766,-3.209541 -0.225891,-6.644989 0.01254,-2.052885 -0.150604,-3.857928 -0.489433,-5.415133 -0.338847,-1.557174 -0.928676,-2.897883 -1.769487,-4.022132 -0.332571,-0.528107 -0.734156,-0.977798 -1.204757,-1.349076 -0.470614,-0.371237 -1.123191,-0.50719 -1.957731,-0.407861 0.03346,2.749417 0.0042,5.583521 -0.08785,8.502323 -0.09203,2.918826 -0.146415,5.690183 -0.163143,8.31408 -0.08994,2.208724 -0.587741,3.589173 -1.493397,4.141352 -0.905662,0.55218 -1.67955,0.27609 -2.321668,-0.82827 -0.06902,-3.771137 -0.01882,-7.5109 0.150595,-11.219302 0.169418,-3.708377 0.269815,-7.347744 0.301189,-10.918112 -0.01921,-1.657446 -0.07003,-3.540807 -0.152455,-5.650089 -0.08242,-2.109224 -0.08119,-3.936809 0.0037,-5.482761 0.0849,-1.5458826 0.36874,-2.3025732 0.851511,-2.270074 0.292822,-0.3036318 1.235432,-0.4660014 2.827833,-0.4871092 1.592393,-0.021034 3.282397,0.2144639 5.070019,0.7064934 1.787604,0.4921024 3.120644,1.3560068 3.999126,2.5917158 0.972582,1.688993 1.336522,3.393639 1.091812,5.113943 -0.244731,1.720362 -0.909857,3.11127 -1.99538,4.172727 -0.40369,0.544884 -0.87639,0.998759 -1.418101,1.361627 -0.541733,0.362914 -0.989333,0.678744 -1.342801,0.947492 z m -5.521804,-3.815065 c 0.05329,0.234903 0.487724,0.367526 1.303294,0.397867 0.815559,0.03039 1.692477,-0.04521 2.630757,-0.226821 0.938264,-0.181556 1.618109,-0.472829 2.039537,-0.873821 0.356606,-0.458031 0.622238,-1.261202 0.796896,-2.409515 0.174637,-1.148254 0.07633,-2.001623 -0.294914,-2.560109 -0.403145,-0.47778 -1.147441,-0.894238 -2.232891,-1.249377 -1.085466,-0.355073 -2.101205,-0.59305 -3.047218,-0.713931 -0.946024,-0.120814 -1.411441,-0.06876 -1.396254,0.156173 -0.08026,0.118402 -0.114964,0.645793 -0.104115,1.582173 0.01084,0.936445 0.04678,1.973254 0.107832,3.11043 0.06104,1.137234 0.126731,2.06621 0.197076,2.786931 z"
       id="path3197"
       style="fill:#073642;font-family:Happy Fox Condensed;-inkscape-font-specification:Happy Fox Condensed" />
    <path
       d="m 110.67394,22.324259 c 0.60341,0.86594 1.2037,1.807156 1.80086,2.823649 0.59714,1.016532 1.03428,2.18364 1.31143,3.501326 0.26771,1.546747 0.43504,3.272309 0.50198,5.176692 0.0669,1.904403 0.0836,3.742911 0.0502,5.515528 0.0115,0.919259 0.0261,1.766353 0.0439,2.541284 0.0178,0.774937 -0.0303,1.232995 -0.14432,1.374177 -0.31375,0.580418 -0.77808,0.950629 -1.393,1.110635 -0.61494,0.160007 -1.15457,-0.210204 -1.61889,-1.110635 -0.18825,-0.398447 -0.26355,-1.094947 -0.22589,-2.089501 0.0376,-0.994547 -0.0377,-3.209541 -0.22589,-6.644989 0.0125,-2.052885 -0.15061,-3.857928 -0.48944,-5.415133 -0.33884,-1.557174 -0.92867,-2.897883 -1.76948,-4.022132 -0.33257,-0.528107 -0.73416,-0.977798 -1.20476,-1.349076 -0.47062,-0.371237 -1.12319,-0.50719 -1.95773,-0.407861 0.0335,2.749417 0.004,5.583521 -0.0879,8.502323 -0.092,2.918826 -0.14642,5.690183 -0.16314,8.31408 -0.09,2.208724 -0.58774,3.589173 -1.4934,4.141352 -0.90566,0.55218 -1.67955,0.27609 -2.32167,-0.82827 -0.069,-3.771137 -0.0188,-7.5109 0.1506,-11.219302 0.16942,-3.708377 0.26981,-7.347744 0.30119,-10.918112 -0.0192,-1.657446 -0.07,-3.540807 -0.15246,-5.650089 -0.0824,-2.109224 -0.0812,-3.936809 0.004,-5.482761 0.0849,-1.5458826 0.36874,-2.3025732 0.85151,-2.270074 0.29282,-0.3036318 1.23543,-0.4660014 2.82783,-0.4871092 1.5924,-0.021034 3.2824,0.2144639 5.07002,0.7064934 1.78761,0.4921024 3.12065,1.3560068 3.99913,2.5917158 0.97258,1.688993 1.33651,3.393639 1.09181,5.113943 -0.24473,1.720362 -0.90986,3.11127 -1.99538,4.172727 -0.40369,0.544884 -0.87639,0.998759 -1.4181,1.361627 -0.54173,0.362914 -0.98933,0.678744 -1.3428,0.947492 z m -5.52181,-3.815065 c 0.0533,0.234903 0.48773,0.367526 1.3033,0.397867 0.81556,0.03039 1.69248,-0.04521 2.63076,-0.226821 0.93826,-0.181556 1.6181,-0.472829 2.03953,-0.873821 0.35661,-0.458031 0.62224,-1.261202 0.7969,-2.409515 0.17464,-1.148254 0.0763,-2.001623 -0.29492,-2.560109 -0.40314,-0.47778 -1.14744,-0.894238 -2.23289,-1.249377 -1.08546,-0.355073 -2.1012,-0.59305 -3.04721,-0.713931 -0.94603,-0.120814 -1.41145,-0.06876 -1.39626,0.156173 -0.0803,0.118402 -0.11496,0.645793 -0.10411,1.582173 0.0108,0.936445 0.0468,1.973254 0.10783,3.11043 0.061,1.137234 0.12673,2.06621 0.19707,2.786931 z"
       id="path3199"
       style="fill:#073642;font-family:Happy Fox Condensed;-inkscape-font-specification:Happy Fox Condensed" />
    <path
       d="m 127.67564,22.725844 c 0.0261,1.152487 0.024,2.298679 -0.006,3.438577 -0.0303,1.139936 -0.0952,2.286128 -0.19452,3.438579 -0.0596,1.002933 -0.14119,2.059186 -0.24472,3.168763 -0.10354,1.1096 -0.17256,2.278799 -0.20706,3.5076 -0.0429,1.199535 -0.15793,2.326902 -0.34512,3.382105 -0.18721,1.055212 -0.49049,1.919039 -0.90984,2.591483 -0.32525,0.503029 -0.77913,0.97782 -1.36163,1.424374 -0.58251,0.446556 -1.14934,0.708005 -1.70046,0.784348 -1.18594,0.0983 -2.20245,-0.09831 -3.04954,-0.58983 -0.8471,-0.491523 -1.48713,-1.114817 -1.92009,-1.869883 -0.25935,-0.394262 -0.49361,-0.810489 -0.70277,-1.24868 -0.20916,-0.438185 -0.34302,-0.942258 -0.40159,-1.512222 -0.0533,-0.400535 -0.0973,-0.86696 -0.13177,-1.399276 -0.0345,-0.532303 -0.0408,-0.986178 -0.0188,-1.361626 0.1119,-1.773661 0.17674,-3.710473 0.19452,-5.810445 0.0178,-2.099943 0.0701,-4.262647 0.15687,-6.488118 0.0659,-1.033226 0.0847,-2.079021 0.0565,-3.13739 -0.0282,-1.058321 -0.0471,-2.104116 -0.0565,-3.137388 -0.023,-1.552979 0.0104,-3.015001 0.10039,-4.38607 0.0899,-1.371007 0.3744,-2.519289 0.85337,-3.444852 0.28759,-0.5009016 0.67872,-0.9798761 1.17339,-1.4369247 0.49466,-0.4569768 1.02383,-0.7477074 1.58752,-0.8721929 1.53836,-0.2614124 2.79122,-0.1777488 3.75859,0.2509911 0.96735,0.4288129 1.75588,1.1148545 2.36559,2.0581265 0.14744,0.309591 0.32941,1.033281 0.5459,2.171073 0.21647,1.137857 0.33569,2.037241 0.35767,2.698155 0.004,1.15877 0.0209,2.430457 0.0502,3.815064 0.0293,1.384659 0.046,2.706544 0.0502,3.965659 z m -3.81506,-10.993409 c -0.17047,-0.279196 -0.48212,-0.523912 -0.93494,-0.73415 -0.45284,-0.21017 -0.92763,-0.216445 -1.42438,-0.01882 -1.11587,0.515612 -1.73289,1.479835 -1.85106,2.892673 -0.11818,1.412899 -0.12027,3.042248 -0.006,4.888051 0.0858,2.270447 0.10248,4.606753 0.0502,7.008927 -0.0523,2.40221 -0.0858,4.65067 -0.1004,6.745385 -0.13491,2.059182 -0.17884,3.939521 -0.13177,5.641024 0.0471,1.701515 0.99455,2.615541 2.84247,2.742078 0.92553,-0.156865 1.40868,-1.010234 1.44948,-2.560109 0.0408,-1.549863 0.1098,-2.855015 0.20706,-3.915461 0.23209,-1.364636 0.40375,-3.476677 0.515,-6.336131 0.11123,-2.85942 0.17506,-5.607305 0.1915,-8.243663 0.0164,-2.636309 -0.002,-4.302144 -0.0539,-4.997511 -0.0408,-0.515547 -0.10982,-1.015437 -0.20707,-1.499672 -0.0973,-0.484173 -0.27923,-1.021711 -0.5459,-1.612617 z"
       id="path3201"
       style="fill:#073642;font-family:Happy Fox Condensed;-inkscape-font-specification:Happy Fox Condensed" />
    <path
       d="m 141.73601,11.280651 c -0.67246,0.19978 -1.48609,0.201872 -2.44089,0.0063 -0.95482,-0.195531 -1.47981,-0.130692 -1.57497,0.194518 -0.47793,3.853789 -0.66408,8.16874 -0.55845,12.944866 0.10562,4.776167 0.0575,9.480153 -0.14432,14.111974 -0.003,0.84005 0.009,1.792575 0.0372,2.857579 0.0282,1.06501 -0.10815,1.920858 -0.40902,2.567545 -0.30089,0.646689 -0.94665,0.762579 -1.93728,0.347671 -0.85337,-0.478973 -1.31771,-1.428555 -1.393,-2.848749 -0.0753,-1.420187 -0.0627,-2.846652 0.0377,-4.279398 0.0397,-0.80421 0.0356,-1.58019 -0.0126,-2.327943 -0.0481,-0.747733 -0.0774,-1.460966 -0.0879,-2.139698 0.002,-3.642493 0.0607,-7.250486 0.1757,-10.823992 0.11503,-3.573459 0.27399,-6.943011 0.47688,-10.108665 -0.0753,-0.387958 -0.50199,-0.502995 -1.28006,-0.345113 -0.77807,0.157948 -1.45575,0.206055 -2.03302,0.14432 -0.45597,-0.138012 -0.88684,-0.401552 -1.29261,-0.790622 -0.40577,-0.389002 -0.61074,-0.8282363 -0.61493,-1.3177032 0.16609,-0.9249124 1.03867,-1.512417 2.61775,-1.7625156 1.57907,-0.250025 3.26969,-0.3355482 5.07188,-0.2565699 1.80217,0.079052 3.12095,0.1497023 3.95636,0.2119496 1.0782,0.3043636 1.69522,0.9506652 1.85106,1.9389066 0.15581,0.9883115 0.007,1.5467655 -0.44551,1.6753655 z"
       id="path3203"
       style="fill:#073642;font-family:Happy Fox Condensed;-inkscape-font-specification:Happy Fox Condensed" />
    <path
       d="m 165.22674,8.8209379 c 0.0431,0.8323334 -0.37773,1.4154991 -1.26239,1.7495001 -0.88467,0.334069 -1.88926,0.545397 -3.01375,0.633985 -1.12451,0.08866 -2.02498,0.180996 -2.70141,0.27702 -0.10667,0.973669 -0.10667,1.925343 0,2.855024 0.10667,0.929743 0.20706,1.868866 0.30119,2.817375 0.44341,-0.01984 0.96213,0.03245 1.55615,0.15687 0.594,0.124477 1.01232,0.440307 1.25495,0.947491 0.0314,0.974707 -0.25727,1.560352 -0.86592,1.756937 -0.60866,0.196635 -1.12319,0.330497 -1.54359,0.401586 -0.007,2.659481 0.15791,5.447571 0.4957,8.364279 0.33779,2.916739 0.59087,5.817774 0.75925,8.703115 0.0983,1.261236 0.19033,2.553839 0.27609,3.877813 0.0857,1.32398 -0.12341,2.189898 -0.62748,2.597757 -1.26518,0.868863 -2.15945,0.687281 -2.68281,-0.544745 -0.52337,-1.232023 -0.91566,-4.109432 -1.17687,-8.632234 -0.26122,-4.522783 -0.6312,-11.285901 -1.10994,-20.289374 -0.18092,-1.495458 -0.32106,-2.821527 -0.42041,-3.978211 -0.0993,-1.1566155 0.32524,-1.9054043 1.27378,-2.2463685 0.53963,-0.011467 1.02906,-0.00101 1.4683,0.031374 0.43923,0.032456 0.90356,0.00527 1.393,-0.081573 1.20475,-0.3042893 2.54755,-0.5239062 4.02841,-0.6588512 1.48083,-0.134871 2.34675,0.2855385 2.59775,1.2612298 z"
       id="path3205"
       style="fill:#073642;font-family:Happy Fox Condensed;-inkscape-font-specification:Happy Fox Condensed" />
    <path
       d="m 175.38341,22.324259 c 0.60341,0.86594 1.2037,1.807156 1.80086,2.823649 0.59714,1.016532 1.03428,2.18364 1.31143,3.501326 0.26771,1.546747 0.43504,3.272309 0.50198,5.176692 0.0669,1.904403 0.0837,3.742911 0.0502,5.515528 0.0115,0.919259 0.0261,1.766353 0.0439,2.541284 0.0178,0.774937 -0.0303,1.232995 -0.14432,1.374177 -0.31375,0.580418 -0.77808,0.950629 -1.393,1.110635 -0.61494,0.160007 -1.15457,-0.210204 -1.61889,-1.110635 -0.18826,-0.398447 -0.26355,-1.094947 -0.22589,-2.089501 0.0376,-0.994547 -0.0377,-3.209541 -0.2259,-6.644989 0.0125,-2.052885 -0.1506,-3.857928 -0.48943,-5.415133 -0.33885,-1.557174 -0.92867,-2.897883 -1.76949,-4.022132 -0.33257,-0.528107 -0.73415,-0.977798 -1.20475,-1.349076 -0.47062,-0.371237 -1.12319,-0.50719 -1.95773,-0.407861 0.0335,2.749417 0.004,5.583521 -0.0879,8.502323 -0.092,2.918826 -0.14642,5.690183 -0.16314,8.31408 -0.0899,2.208724 -0.58775,3.589173 -1.4934,4.141352 -0.90566,0.55218 -1.67955,0.27609 -2.32167,-0.82827 -0.069,-3.771137 -0.0188,-7.5109 0.1506,-11.219302 0.16941,-3.708377 0.26981,-7.347744 0.30118,-10.918112 -0.0192,-1.657446 -0.07,-3.540807 -0.15245,-5.650089 -0.0824,-2.109224 -0.0812,-3.936809 0.004,-5.482761 0.0849,-1.5458826 0.36874,-2.3025732 0.85151,-2.270074 0.29282,-0.3036318 1.23543,-0.4660014 2.82783,-0.4871092 1.5924,-0.021034 3.2824,0.2144639 5.07002,0.7064934 1.78761,0.4921024 3.12065,1.3560068 3.99913,2.5917158 0.97257,1.688993 1.33651,3.393639 1.09181,5.113943 -0.24473,1.720362 -0.90986,3.11127 -1.99538,4.172727 -0.40369,0.544884 -0.87639,0.998759 -1.4181,1.361627 -0.54173,0.362914 -0.98933,0.678744 -1.3428,0.947492 z m -5.52181,-3.815065 c 0.0533,0.234903 0.48773,0.367526 1.3033,0.397867 0.81556,0.03039 1.69247,-0.04521 2.63075,-0.226821 0.93827,-0.181556 1.61811,-0.472829 2.03954,-0.873821 0.35661,-0.458031 0.62224,-1.261202 0.7969,-2.409515 0.17463,-1.148254 0.0763,-2.001623 -0.29492,-2.560109 -0.40314,-0.47778 -1.14744,-0.894238 -2.23289,-1.249377 -1.08546,-0.355073 -2.1012,-0.59305 -3.04722,-0.713931 -0.94602,-0.120814 -1.41144,-0.06876 -1.39625,0.156173 -0.0803,0.118402 -0.11496,0.645793 -0.10411,1.582173 0.0108,0.936445 0.0468,1.973254 0.10783,3.11043 0.061,1.137234 0.12673,2.06621 0.19707,2.786931 z"
       id="path3207"
       style="fill:#073642;font-family:Happy Fox Condensed;-inkscape-font-specification:Happy Fox Condensed" />
    <path
       d="m 189.22263,8.0679647 c 0.36602,0.3012245 0.63792,0.8785032 0.81572,1.7318377 0.17777,0.8534046 0.32419,1.6816746 0.43923,2.4848126 0.61701,3.689597 1.20266,7.504658 1.75694,11.445194 0.55426,3.940577 1.2905,7.856034 2.20872,11.746383 0.40994,1.566609 0.76969,3.114386 1.07926,4.643334 0.30954,1.528957 0.36811,2.675149 0.1757,3.438579 -1.61891,0.918208 -2.64797,0.713232 -3.08719,-0.61493 -0.43925,-1.328158 -0.81574,-2.963782 -1.12946,-4.906874 -0.35977,-1.713006 -0.66932,-3.294248 -0.92867,-4.743733 -0.25937,-1.449461 -0.56892,-2.729514 -0.92867,-3.840163 -0.40055,0.133876 -0.89207,0.192441 -1.47457,0.175693 -0.58252,-0.01672 -1.11169,-0.0084 -1.58752,0.0251 -0.30119,1.041627 -0.56473,2.183635 -0.79062,3.426028 -0.2259,1.242416 -0.41414,2.50992 -0.56473,3.802516 -0.13177,1.429609 -0.25727,2.987844 -0.37649,4.674708 -0.11922,1.686871 -0.34511,2.605079 -0.67767,2.754628 -0.4246,0.178832 -0.86802,0.260404 -1.33026,0.244717 -0.46224,-0.01569 -0.80526,-0.147458 -1.02906,-0.395312 -0.51139,-0.873239 -0.74356,-1.850012 -0.6965,-2.930322 0.0471,-1.080303 0.12863,-2.144922 0.24472,-3.19386 0.10039,-1.420183 0.30119,-2.909395 0.60238,-4.467642 0.30118,-1.558224 0.55217,-3.097635 0.75297,-4.618236 0.0982,-0.757604 0.38702,-2.209633 0.86638,-4.356089 0.47936,-2.146417 0.96151,-4.2566 1.44645,-6.330554 0.48494,-2.073902 0.78489,-3.380913 0.89985,-3.921038 0.14502,-0.893621 0.34581,-1.911839 0.60238,-3.054655 0.25656,-1.142751 0.60237,-2.0680084 1.03743,-2.7757767 0.43505,-0.7076962 0.9928,-0.8558112 1.67328,-0.4443456 z m -1.45575,13.7041133 c -0.16943,0.781233 -0.30747,1.465183 -0.41414,2.051853 -0.10668,0.586711 -0.21962,1.207913 -0.33883,1.863608 0.37229,0.02512 0.6693,0.06277 0.89101,0.112946 0.22171,0.05022 0.54381,-0.03763 0.96632,-0.263541 -0.001,-0.683931 -0.0617,-1.650246 -0.18197,-2.898947 -0.12027,-1.248658 -0.29388,-1.989081 -0.52081,-2.221271 -0.0575,0.01885 -0.13073,0.207092 -0.21961,0.56473 -0.0889,0.357686 -0.14956,0.621226 -0.18197,0.790622 z"
       id="path3209"
       style="fill:#073642;font-family:Happy Fox Condensed;-inkscape-font-specification:Happy Fox Condensed" />
    <path
       d="m 199.60288,7.1141985 c 0.30521,0.048687 0.60392,0.4422157 0.89613,1.1805879 0.2922,0.7384449 0.55372,1.5298405 0.78458,2.3741896 0.23084,0.844416 0.40685,1.449893 0.52801,1.816432 0.0826,0.196641 0.18092,0.455998 0.29492,0.778071 0.11398,0.322137 0.19974,0.581494 0.25726,0.778074 0.17883,0.455998 0.37334,0.974712 0.58356,1.556144 0.21019,0.581491 0.41726,0.899412 0.6212,0.953766 0.22836,-0.07744 0.61941,-0.675479 1.17315,-1.794122 0.55372,-1.118584 1.10466,-2.292973 1.65282,-3.523172 0.54814,-1.230132 0.92804,-2.051274 1.13969,-2.4634293 0.16731,-0.2739631 0.29699,-0.4914885 0.38903,-0.6525768 0.092,-0.1610154 0.1966,-0.2781444 0.31374,-0.3513875 0.36811,-0.1986644 0.74878,-0.2655953 1.14201,-0.2007929 0.39321,0.064876 0.69858,0.2489364 0.91612,0.5521804 0.20078,0.2112874 0.26353,0.7425514 0.18824,1.5937934 -0.0753,0.8513117 -0.13806,1.6586657 -0.18824,2.4220637 -0.14956,4.846247 -0.2646,9.949727 -0.34511,15.310457 -0.0805,5.360763 -0.13283,10.514442 -0.15687,15.461051 -0.009,0.516623 -0.1412,0.888926 -0.39531,1.116909 -0.25414,0.227985 -0.57416,0.374396 -0.96004,0.439236 -0.33676,0.09098 -0.65468,0.07216 -0.95377,-0.05647 -0.29911,-0.128633 -0.51663,-0.310601 -0.65258,-0.545904 -0.15583,-0.398448 -0.20812,-1.019651 -0.15687,-1.86361 0.0512,-0.843954 0.0868,-1.6283 0.10667,-2.35304 3e-4,-1.871582 0.022,-4.247009 0.0651,-7.126289 0.0431,-2.879256 0.10565,-5.775257 0.18777,-8.68801 0.0821,-2.912712 0.18188,-5.35507 0.29933,-7.32708 -0.20498,0.08892 -0.42251,0.33782 -0.65257,0.746699 -0.23009,0.408933 -0.7488,1.348057 -1.55615,2.817375 -0.56996,0.884766 -0.94854,1.386748 -1.13573,1.505946 -0.18721,0.119245 -0.37754,0.119245 -0.57101,0 -0.55741,-0.216457 -1.09913,-0.83766 -1.62516,-1.86361 -0.52605,-1.0259 -0.85443,-1.760048 -0.98514,-2.202445 -0.1391,-0.356591 -0.2374,-0.584574 -0.29492,-0.683952 -0.0575,-0.09932 -0.14328,-0.189261 -0.25726,-0.269815 -0.004,1.092884 -0.0209,2.006908 -0.0502,2.742077 -0.0293,0.735219 -0.046,1.5112 -0.0502,2.327943 -0.001,1.342824 -0.0241,2.786021 -0.069,4.329596 -0.045,1.543612 -0.10563,3.112305 -0.18197,4.706084 -0.0607,1.69211 -0.0774,3.340283 -0.0502,4.944523 0.0272,1.604259 0.0104,3.101838 -0.0502,4.492742 -0.0146,0.82409 -0.0481,1.648177 -0.10039,2.472262 -0.0523,0.824089 -0.33675,1.372085 -0.85337,1.643991 -0.33466,0.149549 -0.64422,0.189289 -0.92867,0.119221 -0.28446,-0.07007 -0.49362,-0.24367 -0.62748,-0.520806 -0.29701,-1.030108 -0.43087,-2.157475 -0.40158,-3.382106 0.0293,-1.224623 0.046,-2.540233 0.0502,-3.946834 -0.0105,-0.830353 -0.0397,-1.666989 -0.0878,-2.509911 -0.0481,-0.842901 -0.0523,-1.679537 -0.0126,-2.509911 0.1851,-3.532683 0.29177,-7.046554 0.32001,-10.541626 0.0282,-3.495023 0.0722,-6.707706 0.13177,-9.638057 -0.0732,-1.196357 -0.0648,-2.2421527 0.0251,-3.1373897 0.0899,-0.8951643 0.85128,-1.2381848 2.28402,-1.0290628 z"
       id="path3211"
       style="fill:#073642;font-family:Happy Fox Condensed;-inkscape-font-specification:Happy Fox Condensed" />
    <path
       d="m 214.95979,11.883029 c 0.0126,2.014234 0.13804,4.059809 0.37649,6.136732 0.23844,2.076976 0.36393,4.147651 0.37649,6.21203 0.70695,0.102507 1.30096,0.274017 1.78203,0.514531 0.48106,0.240553 0.67349,0.688154 0.57728,1.342803 -0.0868,0.48213 -0.31479,0.823059 -0.68395,1.022788 -0.36917,0.199765 -0.8105,0.37755 -1.32398,0.533357 0.22484,2.318544 0.39008,4.646484 0.49571,6.983827 0.10562,2.337362 0.30851,4.627654 0.60865,6.870881 0.8586,-0.232164 1.76425,-0.34511 2.71698,-0.338838 0.95271,0.0063 1.77053,0.169422 2.45344,0.489432 0.31896,0.274001 0.37125,0.717418 0.15687,1.330252 -0.2144,0.612838 -0.50095,0.955859 -0.85964,1.029065 -1.13157,0.125495 -2.25684,0.238441 -3.37584,0.338838 -1.119,0.100397 -2.21918,0.188243 -3.30053,0.26354 -0.72369,-0.08157 -1.17129,-0.458059 -1.3428,-1.12946 -0.17151,-0.6714 -0.24263,-1.148283 -0.21334,-1.430649 -0.0604,-0.732519 -0.18499,-2.52478 -0.3737,-5.376787 -0.18871,-2.851992 -0.38021,-5.882474 -0.57449,-9.091456 -0.19429,-3.208947 -0.33001,-5.715137 -0.40716,-7.518576 -0.0544,-1.158718 -0.13387,-2.29236 -0.23845,-3.40093 -0.10458,-1.108515 -0.20916,-2.166859 -0.31373,-3.175037 -0.11609,-1.152435 -0.0847,-2.097834 0.0941,-2.8362 0.17883,-0.7382977 0.59924,-1.2821109 1.26123,-1.6314412 0.65989,-0.2938328 1.61157,-0.5218163 2.85502,-0.6839511 1.24345,-0.1620623 2.28297,-0.3021987 3.11857,-0.4204097 0.92761,-0.1275507 1.60737,0.014677 2.0393,0.4266841 0.4319,0.4120794 0.47164,0.9558931 0.11922,1.6314428 -0.65259,0.8732741 -1.55615,1.2727681 -2.7107,1.1984831 -1.15457,-0.07422 -2.25893,0.162131 -3.31309,0.709049 z"
       id="path3213"
       style="fill:#073642;font-family:Happy Fox Condensed;-inkscape-font-specification:Happy Fox Condensed" />
    <path
       d="m 242.01445,6.6122164 c 0.40261,0.072198 0.77701,0.1663197 1.12318,0.2823653 0.34614,0.116121 0.65779,0.2729902 0.93494,0.4706079 0.17777,1.4076784 0.21123,2.8592424 0.1004,4.3546964 -0.11087,1.495519 -0.228,3.02238 -0.35139,4.580586 -0.31585,4.542962 -0.55011,9.236491 -0.70277,14.0806 -0.15271,4.844137 -0.58776,9.387071 -1.30516,13.628817 -0.17885,0.213342 -0.36081,0.338837 -0.5459,0.376485 -0.18512,0.03765 -0.35454,0.06275 -0.50826,0.0753 -0.19976,0.03137 -0.40265,0.05647 -0.60865,0.0753 -0.20604,0.01882 -0.42147,-0.0063 -0.6463,-0.0753 -0.51455,-0.225893 -0.89104,-0.903568 -1.12946,-2.033029 -0.23846,-1.129457 -0.41415,-2.108321 -0.52708,-2.936595 -0.59194,-2.865474 -1.12739,-5.894097 -1.60635,-9.085877 -0.47898,-3.191752 -0.96423,-6.069781 -1.45575,-8.634094 -0.37754,2.240116 -0.65154,4.637079 -0.82199,7.190895 -0.17048,2.553847 -0.38173,5.076305 -0.63375,7.567381 -0.10355,1.034299 -0.19767,2.052904 -0.28237,3.055817 -0.0847,1.002923 -0.29179,2.109374 -0.6212,3.319357 -0.42356,0.290732 -0.91927,0.575188 -1.48712,0.853369 -0.56788,0.278183 -1.07614,0.161054 -1.52478,-0.351387 -0.22341,-1.240834 -0.62682,-3.468378 -1.21024,-6.682638 -0.58343,-3.214244 -1.21117,-6.671643 -1.88322,-10.372207 -0.67206,-3.700528 -1.25274,-6.900661 -1.74204,-9.600409 -0.4893,-2.699692 -0.75153,-4.155439 -0.7867,-4.367245 -0.10876,-0.885756 -0.17987,-1.925277 -0.21334,-3.118565 -0.0335,-1.1932172 0.17151,-2.044494 0.61493,-2.5538332 0.26668,-0.3837695 0.57414,-0.4946239 0.92239,-0.3325636 0.34825,0.1621368 0.64316,0.4905166 0.88475,0.9851404 0.92552,3.1844824 1.70987,6.7046294 2.35304,10.5604494 0.64316,3.855874 1.31456,8.066246 2.0142,12.631127 0.1987,-2.357209 0.37857,-4.218725 0.53963,-5.584553 0.16105,-1.365789 0.31583,-2.850817 0.46434,-4.45509 0.123,-1.477414 0.31202,-3.101728 0.56705,-4.872947 0.25501,-1.771161 0.5407,-3.358291 0.85709,-4.761394 0.31636,-1.4030363 0.62808,-2.2911095 0.93517,-2.6642227 0.23529,-0.2886038 0.44236,-0.5019463 0.6212,-0.640028 0.17882,-0.1380077 0.42354,-0.1254579 0.73415,0.037649 0.46014,0.328416 0.7948,1.0144576 1.00397,2.0581269 0.20914,1.0437398 0.3932,1.9807718 0.55218,2.8111008 0.58877,2.680404 1.10539,5.351365 1.54987,8.012889 0.44445,2.661573 0.89832,5.646273 1.36162,8.954108 0.28026,-3.196981 0.56054,-6.767326 0.84083,-10.711045 0.28025,-3.943668 0.53543,-7.451265 0.76552,-10.5228011 0.0136,-0.2237634 0.11188,-0.5040365 0.29491,-0.8408201 0.183,-0.3367092 0.36915,-0.5918833 0.55846,-0.7655228 z"
       id="path3215"
       style="fill:#073642;font-family:Happy Fox Condensed;-inkscape-font-specification:Happy Fox Condensed" />
    <path
       d="m 255.91805,22.725844 c 0.0261,1.152487 0.024,2.298679 -0.006,3.438577 -0.0303,1.139936 -0.0952,2.286128 -0.19451,3.438579 -0.0596,1.002933 -0.1412,2.059186 -0.24472,3.168763 -0.10354,1.1096 -0.17257,2.278799 -0.20707,3.5076 -0.0429,1.199535 -0.15792,2.326902 -0.34511,3.382105 -0.18721,1.055212 -0.49049,1.919039 -0.90984,2.591483 -0.32525,0.503029 -0.77913,0.97782 -1.36163,1.424374 -0.58252,0.446556 -1.14934,0.708005 -1.70046,0.784348 -1.18594,0.0983 -2.20245,-0.09831 -3.04955,-0.58983 -0.84709,-0.491523 -1.48712,-1.114817 -1.92008,-1.869883 -0.25936,-0.394262 -0.49361,-0.810489 -0.70277,-1.24868 -0.20916,-0.438185 -0.34302,-0.942258 -0.40159,-1.512222 -0.0533,-0.400535 -0.0973,-0.86696 -0.13177,-1.399276 -0.0345,-0.532303 -0.0408,-0.986178 -0.0188,-1.361626 0.1119,-1.773661 0.17674,-3.710473 0.19452,-5.810445 0.0178,-2.099943 0.0701,-4.262647 0.15687,-6.488118 0.0659,-1.033226 0.0847,-2.079021 0.0565,-3.13739 -0.0282,-1.058321 -0.0471,-2.104116 -0.0565,-3.137388 -0.023,-1.552979 0.0104,-3.015001 0.10039,-4.38607 0.0899,-1.371007 0.3744,-2.519289 0.85337,-3.444852 0.28759,-0.5009016 0.67872,-0.9798761 1.17338,-1.4369247 0.49466,-0.4569768 1.02384,-0.7477074 1.58752,-0.8721929 1.53836,-0.2614124 2.79123,-0.1777488 3.7586,0.2509911 0.96735,0.4288129 1.75588,1.1148545 2.36559,2.0581265 0.14744,0.309591 0.32941,1.033281 0.5459,2.171073 0.21647,1.137857 0.33569,2.037241 0.35766,2.698155 0.004,1.15877 0.0209,2.430457 0.0502,3.815064 0.0293,1.384659 0.046,2.706544 0.0502,3.965659 z m -3.81506,-10.993409 c -0.17048,-0.279196 -0.48212,-0.523912 -0.93495,-0.73415 -0.45283,-0.21017 -0.92762,-0.216445 -1.42437,-0.01882 -1.11587,0.515612 -1.73289,1.479835 -1.85106,2.892673 -0.11818,1.412899 -0.12027,3.042248 -0.006,4.888051 0.0858,2.270447 0.10248,4.606753 0.0502,7.008927 -0.0523,2.40221 -0.0858,4.65067 -0.10039,6.745385 -0.13491,2.059182 -0.17884,3.939521 -0.13177,5.641024 0.047,1.701515 0.99455,2.615541 2.84247,2.742078 0.92552,-0.156865 1.40868,-1.010234 1.44948,-2.560109 0.0408,-1.549863 0.1098,-2.855015 0.20706,-3.915461 0.23208,-1.364636 0.40375,-3.476677 0.515,-6.336131 0.11123,-2.85942 0.17506,-5.607305 0.19149,-8.243663 0.0164,-2.636309 -0.002,-4.302144 -0.0539,-4.997511 -0.0408,-0.515547 -0.10982,-1.015437 -0.20707,-1.499672 -0.0973,-0.484173 -0.27923,-1.021711 -0.5459,-1.612617 z"
       id="path3217"
       style="fill:#073642;font-family:Happy Fox Condensed;-inkscape-font-specification:Happy Fox Condensed" />
    <path
       d="m 266.56493,22.324259 c 0.60342,0.86594 1.20371,1.807156 1.80087,2.823649 0.59713,1.016532 1.03427,2.18364 1.31142,3.501326 0.26771,1.546747 0.43504,3.272309 0.50199,5.176692 0.0669,1.904403 0.0836,3.742911 0.0502,5.515528 0.0115,0.919259 0.0261,1.766353 0.0439,2.541284 0.0178,0.774937 -0.0303,1.232995 -0.14432,1.374177 -0.31375,0.580418 -0.77809,0.950629 -1.393,1.110635 -0.61494,0.160007 -1.15457,-0.210204 -1.6189,-1.110635 -0.18825,-0.398447 -0.26355,-1.094947 -0.22589,-2.089501 0.0376,-0.994547 -0.0377,-3.209541 -0.22589,-6.644989 0.0125,-2.052885 -0.1506,-3.857928 -0.48943,-5.415133 -0.33885,-1.557174 -0.92868,-2.897883 -1.76949,-4.022132 -0.33257,-0.528107 -0.73416,-0.977798 -1.20476,-1.349076 -0.47061,-0.371237 -1.12319,-0.50719 -1.95773,-0.407861 0.0335,2.749417 0.004,5.583521 -0.0878,8.502323 -0.092,2.918826 -0.14642,5.690183 -0.16315,8.31408 -0.0899,2.208724 -0.58774,3.589173 -1.4934,4.141352 -0.90566,0.55218 -1.67955,0.27609 -2.32166,-0.82827 -0.069,-3.771137 -0.0188,-7.5109 0.15059,-11.219302 0.16942,-3.708377 0.26982,-7.347744 0.30119,-10.918112 -0.0192,-1.657446 -0.07,-3.540807 -0.15245,-5.650089 -0.0824,-2.109224 -0.0812,-3.936809 0.004,-5.482761 0.0849,-1.5458826 0.36874,-2.3025732 0.85152,-2.270074 0.29282,-0.3036318 1.23543,-0.4660014 2.82783,-0.4871092 1.59239,-0.021034 3.2824,0.2144639 5.07002,0.7064934 1.7876,0.4921024 3.12064,1.3560068 3.99912,2.5917158 0.97258,1.688993 1.33652,3.393639 1.09182,5.113943 -0.24474,1.720362 -0.90986,3.11127 -1.99538,4.172727 -0.40369,0.544884 -0.87639,0.998759 -1.41811,1.361627 -0.54173,0.362914 -0.98933,0.678744 -1.3428,0.947492 z m -5.5218,-3.815065 c 0.0533,0.234903 0.48772,0.367526 1.30329,0.397867 0.81556,0.03039 1.69248,-0.04521 2.63076,-0.226821 0.93826,-0.181556 1.61811,-0.472829 2.03954,-0.873821 0.3566,-0.458031 0.62224,-1.261202 0.79689,-2.409515 0.17464,-1.148254 0.0763,-2.001623 -0.29491,-2.560109 -0.40314,-0.47778 -1.14744,-0.894238 -2.23289,-1.249377 -1.08547,-0.355073 -2.10121,-0.59305 -3.04722,-0.713931 -0.94602,-0.120814 -1.41144,-0.06876 -1.39625,0.156173 -0.0803,0.118402 -0.11497,0.645793 -0.10412,1.582173 0.0108,0.936445 0.0468,1.973254 0.10783,3.11043 0.061,1.137234 0.12673,2.06621 0.19708,2.786931 z"
       id="path3219"
       style="fill:#073642;font-family:Happy Fox Condensed;-inkscape-font-specification:Happy Fox Condensed" />
    <path
       d="m 278.04484,22.324259 c 0.84035,1.4756 1.53011,2.780132 2.06928,3.9136 0.53916,1.133505 1.10621,2.478939 1.70116,4.036308 0.59493,1.557397 1.39624,3.709722 2.40394,6.45698 0.17463,0.361852 0.49046,1.219404 0.94749,2.572658 0.457,1.353264 0.60969,2.537105 0.45806,3.551525 -0.17362,0.528128 -0.54174,0.864874 -1.10436,1.010238 -0.56265,0.145366 -1.03117,0.09308 -1.40555,-0.156869 -0.57102,-0.367074 -0.93495,-0.737285 -1.09181,-1.110636 -0.15688,-0.373346 -0.29493,-0.806305 -0.41414,-1.298878 -0.70174,-2.522455 -1.46935,-4.969616 -2.30284,-7.34149 -0.83351,-2.371853 -1.73917,-4.743717 -2.71698,-7.115597 -0.44029,2.77974 -0.65154,5.51554 -0.63375,8.207408 0.0178,2.691887 0.045,5.678678 0.0816,8.960383 -0.13805,0.598195 -0.69023,0.90775 -1.65654,0.928666 -0.96632,0.02092 -1.5185,-0.22171 -1.65654,-0.727874 -0.0962,-5.087793 0.0586,-10.561485 0.46433,-16.421093 0.40577,-5.859573 0.58564,-11.245418 0.53963,-16.15755 -0.0303,-0.450705 -0.045,-0.866932 -0.0439,-1.248681 10e-4,-0.381681 0.0491,-0.7351593 0.14432,-1.0604369 0.17151,-0.6190755 0.51871,-1.0875917 1.04161,-1.4055501 0.52289,-0.3178851 1.09599,-0.2342214 1.71929,0.2509911 0.11503,1.2602188 0.18614,2.6302099 0.21334,4.1099789 0.0272,1.479833 0.0732,2.887473 0.13805,4.222925 0.93807,-0.874256 1.76007,-2.225424 2.46598,-4.053506 0.70591,-1.828018 1.54045,-3.2544825 2.50364,-4.2793979 0.30327,-0.2384046 0.73832,-0.4140985 1.30515,-0.527082 0.56681,-0.1129097 0.95167,0.062784 1.15456,0.527082 0.12653,0.5333921 0.024,1.1859682 -0.30746,1.9577309 -0.33153,0.771831 -0.59716,1.324011 -0.7969,1.656541 -0.97678,2.108355 -1.78414,3.852741 -2.42206,5.233163 -0.63795,1.380478 -1.5708,3.149964 -2.79855,5.308463 z"
       id="path3221"
       style="fill:#073642;font-family:Happy Fox Condensed;-inkscape-font-specification:Happy Fox Condensed" />
  </g>
  <g
     transform="matrix(0.13882719,0,0,0.13882719,0.51454841,0.63800632)"
     id="g3150">
	<g
   id="g3152">
		<path
   d="m 226.236,110.236 c -8.719,25.041 -18.495,53.089 -50.484,70.844 13.312,3.199 24.758,6.693 35.018,10.648 28.037,10.812 46.155,24.975 55.393,43.291 10.9,21.627 9.186,48.246 -5.307,81.027 62.35,-43.771 91.59,-103.359 80.559,-165.543 -5.977,-33.689 -23.494,-64.102 -48.574,-87.324 -47.749,-7.096 -55.659,15.621 -66.605,47.057 z"
   id="path3154"
   style="fill:#95b6bf" />

		<path
   d="m 123.847,171.358 c 13.746,2.056 25.991,4.178 37.049,6.437 l -0.012,-0.025 c 37.2,-15.409 47.417,-44.751 56.431,-70.642 C 227.326,78.374 236.837,51.074 280.1,52.503 259.998,37.26 236.176,26.218 210.192,20.926 199.621,18.772 189.237,17.68 179.325,17.68 c -64.502,0 -102.732,46.044 -105.954,89.368 -2.017,27.137 10.183,58.281 50.476,64.31 z M 166.89,91.617 c 15.553,0 28.165,12.608 28.165,28.16 0,15.554 -12.609,28.162 -28.165,28.162 -15.556,0 -28.164,-12.607 -28.164,-28.162 0,-15.551 12.609,-28.16 28.164,-28.16 z"
   id="path3156"
   style="fill:#ff80c3" />

		<circle
   cx="166.89"
   cy="119.778"
   r="28.160999"
   id="circle3158"
   style="fill:#073642" />

	</g>

	<g
   id="g3160">
		<path
   d="M 107.167,237.255 C 92.22,216.102 86.176,191.518 89.652,167.69 71.599,154.425 61.99,132.674 63.948,106.347 64.825,94.539 68.055,82.547 73.484,71.189 58.057,75.511 42.374,83.507 26.6,95.126 l -5.059,3.156 -4.391,5.039 c -1.006,2.131 -1.979,4.28 -2.903,6.456 C 5.076,131.384 0,155.148 0,180.102 c 0,24.953 5.076,48.718 14.248,70.322 0.924,2.178 1.897,4.326 2.903,6.457 2.835,6.01 5.991,11.837 9.449,17.457 15.67,25.473 37.497,46.75 63.415,61.75 6.052,3.503 12.328,6.658 18.8,9.449 1.015,0.438 2.035,0.865 3.06,1.283 17.853,7.314 37.143,11.839 57.327,13.044 l 10.641,-10.978 2.607,-12.8 c 7.756,-16.05 13.897,-32.553 18.375,-49.33 -36.672,-0.604 -72.42,-19.447 -93.658,-49.501 z"
   id="path3162"
   style="fill:#80cfff" />

		<g
   id="g3164">
			<path
   d="m 292.839,63.181 c -47.747,-7.098 -55.657,15.619 -66.603,47.055 -8.719,25.041 -18.495,53.089 -50.484,70.844 13.312,3.199 24.758,6.693 35.018,10.648 28.037,10.812 46.155,24.975 55.393,43.291 10.9,21.627 9.186,48.246 -5.307,81.027 62.35,-43.771 91.59,-103.359 80.559,-165.543 -5.977,-33.687 -23.496,-64.1 -48.576,-87.322 z"
   id="path3166"
   style="fill:none" />

			<path
   d="m 160.896,177.795 -0.012,-0.025 c 37.2,-15.409 47.417,-44.751 56.431,-70.642 C 227.326,78.374 236.837,51.074 280.1,52.503 259.998,37.26 236.176,26.218 210.192,20.926 199.621,18.772 189.237,17.68 179.325,17.68 c -64.502,0 -102.732,46.044 -105.954,89.368 -2.018,27.136 10.183,58.281 50.476,64.31 13.745,2.056 25.991,4.178 37.049,6.437 z"
   id="path3168"
   style="fill:none" />

			<path
   d="m 229.729,245.839 c -4.432,-12.028 -5.556,-25.321 -2.604,-36.051 -2.734,-1.542 -5.589,-3.007 -8.546,-4.404 -3.155,9.88 -3.317,21.515 -0.881,32.899 1.04,4.869 2.56,9.688 4.524,14.309 -9.334,-5.172 -16.236,-11.445 -21.189,-17.227 -10.449,-12.195 -16.592,-27.397 -17.534,-42.525 -19.378,-5.296 -40.461,-9.057 -61.05,-12.135 -8.88,-1.329 -16.92,-3.92 -24.019,-7.583 -2.014,20.175 3.582,40.463 16.455,58.68 19.848,28.089 53.476,45.536 87.764,45.536 0.002,0 0.004,0 0.006,0 18.242,-0.002 36.267,-4.947 52.822,-14.412 -7.166,-0.834 -13.604,-2.318 -19.385,-4.256 -2.565,-3.962 -4.697,-8.306 -6.363,-12.831 z"
   id="path3170"
   style="fill:#a9bebf" />

			<path
   d="M 354.412,134.804 C 338.354,72.81 290.107,23.784 228.576,6.616 213.146,2.31 196.883,0 180.079,0 163.276,0 147.014,2.31 131.584,6.616 88.984,18.501 52.76,45.659 29.168,81.816 c -4.476,6.86 -8.495,14.042 -12.017,21.506 0,0 5.826,-5.589 9.45,-8.195 15.774,-11.619 31.458,-19.615 46.884,-23.937 -5.429,11.358 -8.659,23.35 -9.536,35.158 -1.958,26.328 7.65,48.078 25.704,61.343 -3.476,23.829 2.568,48.413 17.515,69.565 21.238,30.055 56.986,48.896 93.657,49.503 -4.478,16.777 -10.619,33.28 -18.375,49.33 0,0 -7.126,13.916 -13.248,23.776 3.6,0.217 7.225,0.338 10.878,0.338 24.143,0 47.168,-4.764 68.207,-13.383 52.001,-21.301 91.826,-66.217 106.126,-121.422 3.75,-14.474 5.747,-29.651 5.747,-45.296 -0.001,-15.645 -1.998,-30.825 -5.748,-45.298 z M 73.371,107.048 C 76.593,63.724 114.823,17.68 179.325,17.68 c 9.911,0 20.295,1.092 30.868,3.246 25.984,5.292 49.807,16.334 69.909,31.577 -43.264,-1.429 -52.775,25.871 -62.787,54.625 -9.012,25.891 -19.229,55.233 -56.43,70.642 l 0.012,0.025 c -11.058,-2.259 -23.304,-4.381 -37.049,-6.437 -40.294,-6.029 -52.494,-37.173 -50.477,-64.31 z m 129.281,170.29 c -0.002,0 -0.004,0 -0.004,0 -34.289,0 -67.917,-17.447 -87.765,-45.536 -12.873,-18.217 -18.469,-38.505 -16.455,-58.68 7.099,3.663 15.139,6.254 24.019,7.583 20.588,3.078 41.671,6.839 61.05,12.135 0.941,15.128 7.085,30.33 17.534,42.525 4.952,5.779 11.854,12.055 21.188,17.227 -1.965,-4.619 -3.482,-9.438 -4.523,-14.309 -2.438,-11.387 -2.274,-23.021 0.881,-32.899 2.957,1.397 5.812,2.862 8.546,4.404 -2.952,10.729 -1.828,24.022 2.603,36.051 1.668,4.525 3.801,8.869 6.364,12.831 5.781,1.938 12.218,3.422 19.386,4.256 -16.556,9.465 -34.58,14.41 -52.824,14.412 z m 58.203,38.71 c 14.49,-32.78 16.207,-59.399 5.306,-81.026 -9.236,-18.317 -27.354,-32.479 -55.394,-43.293 -10.259,-3.955 -21.703,-7.449 -35.017,-10.647 31.989,-17.754 41.767,-45.803 50.485,-70.844 10.945,-31.438 18.855,-54.154 66.603,-47.056 25.08,23.222 42.6,53.635 48.574,87.324 11.032,62.182 -18.208,121.769 -80.557,165.542 z"
   id="path3172"
   style="fill:#073642" />

		</g>

	</g>

</g>
</svg>
