<svg xmlns="http://www.w3.org/2000/svg" xmlns:xlink="http://www.w3.org/1999/xlink" viewBox="0 0 286 51">
    <g fill="#073642">
        <path d="M61.881 19.463c-.205.118-.33 1.288-.376 3.508-.045 2.221-.085 4.785-.119 7.691-.034 2.907-.137 5.448-.309 7.625-.052.921-.071 1.946-.056 3.073.015 1.128-.126 2.052-.424 2.772-.297.72-.941.931-1.93.63-.481-.119-.786-.408-.916-.866s-.209-.973-.238-1.544c.063-3.193.093-6.847.089-10.964-.004-4.117-.019-7.912-.045-11.388-.026-3.475-.041-5.847-.045-7.115-.033-1.118-.054-2.434-.063-3.947-.008-1.513.197-2.39.615-2.629.404-.189 1.297-.28 2.681-.273 1.384.007 2.842.139 4.377.396 1.534.258 2.729.668 3.585 1.233.511.429.856 1.065 1.035 1.908.179.843.285 1.579.32 2.209.11 1.285.016 2.404-.282 3.357-.298.953-.857 1.858-1.675 2.717-.504.465-1.242.768-2.216.907-.974.14-1.873.238-2.696.294-.823.056-1.261.191-1.313.405zm-.954-3.966c.053.238.488.392 1.303.463.816.071 1.692.035 2.631-.106.938-.141 1.618-.411 2.04-.809.342-.462.549-1.282.621-2.46.072-1.178-.085-2.048-.471-2.61-.399-.462-1.113-.77-2.142-.924-1.029-.154-1.988-.19-2.878-.11-.89.081-1.325.241-1.305.482-.114.215-.137 1.002-.069 2.359s.158 2.596.27 3.715z"/>
        <path d="M78.824 8.068c.366.301.638.879.816 1.732.178.853.324 1.682.439 2.485.617 3.69 1.203 7.505 1.757 11.445.554 3.941 1.29 7.856 2.209 11.746.41 1.567.77 3.114 1.079 4.643.31 1.529.368 2.675.176 3.439-1.619.918-2.648.713-3.087-.615-.439-1.328-.816-2.964-1.129-4.907-.36-1.713-.669-3.294-.929-4.744-.259-1.449-.569-2.73-.929-3.84-.401.134-.892.192-1.475.176-.583-.017-1.112-.008-1.588.025-.301 1.042-.565 2.184-.791 3.426-.226 1.242-.414 2.51-.565 3.803-.132 1.43-.257 2.988-.376 4.675-.119 1.687-.345 2.605-.678 2.755-.425.179-.868.26-1.33.245-.462-.016-.805-.147-1.029-.395-.511-.873-.744-1.85-.697-2.93.047-1.08.129-2.145.245-3.194.1-1.42.301-2.909.602-4.468.301-1.558.552-3.098.753-4.618.098-.758.387-2.21.866-4.356s.962-4.257 1.446-6.331c.485-2.074.785-3.381.9-3.921.145-.894.346-1.912.602-3.055.257-1.143.602-2.068 1.037-2.776.435-.708.993-.856 1.673-.444zm-1.456 13.704c-.169.781-.307 1.465-.414 2.052l-.339 1.864c.372.025.669.063.891.113.222.05.544-.038.966-.264-.001-.684-.062-1.65-.182-2.899s-.294-1.989-.521-2.221c-.058.019-.131.207-.22.565s-.15.621-.182.791z"/>
        <path d="M95.379 22.324c.603.866 1.204 1.807 1.801 2.824s1.034 2.184 1.311 3.501c.268 1.547.435 3.272.502 5.177.067 1.904.084 3.743.05 5.516.011.919.026 1.766.044 2.541.018.775-.03 1.233-.144 1.374-.314.58-.778.951-1.393 1.111-.615.16-1.155-.21-1.619-1.111-.188-.398-.264-1.095-.226-2.09.038-.995-.038-3.21-.226-6.645.013-2.053-.151-3.858-.489-5.415-.339-1.557-.929-2.898-1.769-4.022-.333-.528-.734-.978-1.205-1.349-.471-.371-1.123-.507-1.958-.408.033 2.749.004 5.584-.088 8.502-.092 2.919-.146 5.69-.163 8.314-.09 2.209-.588 3.589-1.493 4.141-.906.552-1.68.276-2.322-.828-.069-3.771-.019-7.511.151-11.219.169-3.708.27-7.348.301-10.918-.019-1.657-.07-3.541-.152-5.65-.082-2.109-.081-3.937.004-5.483.085-1.546.369-2.303.852-2.27.293-.304 1.235-.466 2.828-.487 1.592-.021 3.282.214 5.07.706 1.788.492 3.121 1.356 3.999 2.592.973 1.689 1.337 3.394 1.092 5.114-.245 1.72-.91 3.111-1.995 4.173-.404.545-.876.999-1.418 1.362-.542.363-.989.679-1.343.947zm-5.522-3.815c.053.235.488.368 1.303.398.816.03 1.692-.045 2.631-.227.938-.182 1.618-.473 2.04-.874.357-.458.622-1.261.797-2.41.175-1.148.076-2.002-.295-2.56-.403-.478-1.147-.894-2.233-1.249-1.085-.355-2.101-.593-3.047-.714-.946-.121-1.411-.069-1.396.156-.08.118-.115.646-.104 1.582.011.936.047 1.973.108 3.11.061 1.137.127 2.066.197 2.787z"/>
        <path d="M110.674 22.324c.603.866 1.204 1.807 1.801 2.824s1.034 2.184 1.311 3.501c.268 1.547.435 3.272.502 5.177.067 1.904.084 3.743.05 5.516.011.919.026 1.766.044 2.541.018.775-.03 1.233-.144 1.374-.314.58-.778.951-1.393 1.111-.615.16-1.155-.21-1.619-1.111-.188-.398-.264-1.095-.226-2.09.038-.995-.038-3.21-.226-6.645.013-2.053-.151-3.858-.489-5.415-.339-1.557-.929-2.898-1.769-4.022-.333-.528-.734-.978-1.205-1.349-.471-.371-1.123-.507-1.958-.408.034 2.749.004 5.584-.088 8.502-.092 2.919-.146 5.69-.163 8.314-.09 2.209-.588 3.589-1.493 4.141-.906.552-1.68.276-2.322-.828-.069-3.771-.019-7.511.151-11.219.169-3.708.27-7.348.301-10.918-.019-1.657-.07-3.541-.152-5.65-.082-2.109-.081-3.937.004-5.483.085-1.546.369-2.303.852-2.27.293-.304 1.235-.466 2.828-.487 1.592-.021 3.282.214 5.07.706 1.788.492 3.121 1.356 3.999 2.592.973 1.689 1.337 3.394 1.092 5.114-.245 1.72-.91 3.111-1.995 4.173-.404.545-.876.999-1.418 1.362-.542.363-.989.679-1.343.947zm-5.522-3.815c.053.235.488.368 1.303.398.816.03 1.692-.045 2.631-.227.938-.182 1.618-.473 2.04-.874.357-.458.622-1.261.797-2.41.175-1.148.076-2.002-.295-2.56-.403-.478-1.147-.894-2.233-1.249-1.085-.355-2.101-.593-3.047-.714-.946-.121-1.411-.069-1.396.156-.08.118-.115.646-.104 1.582.011.936.047 1.973.108 3.11.061 1.137.127 2.066.197 2.787z"/>
        <path d="M127.676 22.726c.026 1.152.024 2.299-.006 3.439-.03 1.14-.095 2.286-.195 3.439-.06 1.003-.141 2.059-.245 3.169-.104 1.11-.173 2.279-.207 3.508-.043 1.2-.158 2.327-.345 3.382-.187 1.055-.49 1.919-.91 2.591-.325.503-.779.978-1.362 1.424-.583.447-1.149.708-1.7.784-1.186.098-2.202-.098-3.05-.59-.847-.492-1.487-1.115-1.92-1.87-.259-.394-.494-.81-.703-1.249-.209-.438-.343-.942-.402-1.512-.053-.401-.097-.867-.132-1.399s-.041-.986-.019-1.362c.112-1.774.177-3.71.195-5.81.018-2.1.07-4.263.157-6.488.066-1.033.085-2.079.057-3.137-.028-1.058-.047-2.104-.057-3.137-.023-1.553.01-3.015.1-4.386.09-1.371.374-2.519.853-3.445.288-.501.679-.98 1.173-1.437.495-.457 1.024-.748 1.588-.872 1.538-.261 2.791-.178 3.759.251.967.429 1.756 1.115 2.366 2.058.147.31.329 1.033.546 2.171.216 1.138.336 2.037.358 2.698.004 1.159.021 2.43.05 3.815.029 1.385.046 2.707.05 3.966zm-3.815-10.993c-.17-.279-.482-.524-.935-.734-.453-.21-.928-.216-1.424-.019-1.116.516-1.733 1.48-1.851 2.893-.118 1.413-.12 3.042-.006 4.888.086 2.27.102 4.607.05 7.009-.052 2.402-.086 4.651-.1 6.745-.135 2.059-.179 3.94-.132 5.641.047 1.702.995 2.616 2.842 2.742.926-.157 1.409-1.01 1.449-2.56.041-1.55.11-2.855.207-3.915.232-1.365.404-3.477.515-6.336.111-2.859.175-5.607.192-8.244.016-2.636-.002-4.302-.054-4.998-.041-.516-.11-1.015-.207-1.5-.097-.484-.279-1.022-.546-1.613z"/>
        <path d="M141.736 11.281c-.672.2-1.486.202-2.441.006-.955-.196-1.48-.131-1.575.195-.478 3.854-.664 8.169-.558 12.945.106 4.776.058 9.48-.144 14.112-.003.84.009 1.793.037 2.858.028 1.065-.108 1.921-.409 2.568s-.947.763-1.937.348c-.853-.479-1.318-1.429-1.393-2.849-.075-1.42-.063-2.847.038-4.279.04-.804.036-1.58-.013-2.328-.048-.748-.077-1.461-.088-2.14.002-3.642.061-7.25.176-10.824.115-3.573.274-6.943.477-10.109-.075-.388-.502-.503-1.28-.345-.778.158-1.456.206-2.033.144-.456-.138-.887-.402-1.293-.791-.406-.389-.611-.828-.615-1.318.166-.925 1.039-1.512 2.618-1.763 1.579-.25 3.27-.336 5.072-.257 1.802.079 3.121.15 3.956.212 1.078.304 1.695.951 1.851 1.939.156.988.007 1.547-.446 1.675z"/>
        <path d="M165.227 8.821c.043.832-.378 1.415-1.262 1.75-.885.334-1.889.545-3.014.634-1.125.089-2.025.181-2.701.277-.107.974-.107 1.925 0 2.855.107.93.207 1.869.301 2.817.443-.02.962.032 1.556.157.594.124 1.012.44 1.255.947.031.975-.257 1.56-.866 1.757-.609.197-1.123.33-1.544.402-.007 2.659.158 5.448.496 8.364.338 2.917.591 5.818.759 8.703.098 1.261.19 2.554.276 3.878.086 1.324-.123 2.19-.627 2.598-1.265.869-2.159.687-2.683-.545-.523-1.232-.916-4.109-1.177-8.632s-.631-11.286-1.11-20.289c-.181-1.495-.321-2.822-.42-3.978-.099-1.157.325-1.905 1.274-2.246.54-.011 1.029-.001 1.468.031.439.032.904.005 1.393-.082 1.205-.304 2.548-.524 4.028-.659 1.481-.135 2.347.286 2.598 1.261z"/>
        <path d="M175.383 22.324c.603.866 1.204 1.807 1.801 2.824s1.034 2.184 1.311 3.501c.268 1.547.435 3.272.502 5.177.067 1.904.084 3.743.05 5.516.011.919.026 1.766.044 2.541.018.775-.03 1.233-.144 1.374-.314.58-.778.951-1.393 1.111-.615.16-1.155-.21-1.619-1.111-.188-.398-.264-1.095-.226-2.09.038-.995-.038-3.21-.226-6.645.013-2.053-.151-3.858-.489-5.415-.339-1.557-.929-2.898-1.769-4.022-.333-.528-.734-.978-1.205-1.349-.471-.371-1.123-.507-1.958-.408.034 2.749.004 5.584-.088 8.502-.092 2.919-.146 5.69-.163 8.314-.09 2.209-.588 3.589-1.493 4.141-.906.552-1.68.276-2.322-.828-.069-3.771-.019-7.511.151-11.219.169-3.708.27-7.348.301-10.918-.019-1.657-.07-3.541-.152-5.65-.082-2.109-.081-3.937.004-5.483.085-1.546.369-2.303.852-2.27.293-.304 1.235-.466 2.828-.487 1.592-.021 3.282.214 5.07.706 1.788.492 3.121 1.356 3.999 2.592.973 1.689 1.337 3.394 1.092 5.114-.245 1.72-.91 3.111-1.995 4.173-.404.545-.876.999-1.418 1.362-.542.363-.989.679-1.343.947zm-5.522-3.815c.053.235.488.368 1.303.398.816.03 1.692-.045 2.631-.227.938-.182 1.618-.473 2.04-.874.357-.458.622-1.261.797-2.41.175-1.148.076-2.002-.295-2.56-.403-.478-1.147-.894-2.233-1.249-1.085-.355-2.101-.593-3.047-.714-.946-.121-1.411-.069-1.396.156-.08.118-.115.646-.104 1.582.011.936.047 1.973.108 3.11.061 1.137.127 2.066.197 2.787z"/>
        <path d="M189.223 8.068c.366.301.638.879.816 1.732.178.853.324 1.682.439 2.485.617 3.69 1.203 7.505 1.757 11.445.554 3.941 1.29 7.856 2.209 11.746.41 1.567.77 3.114 1.079 4.643.31 1.529.368 2.675.176 3.439-1.619.918-2.648.713-3.087-.615-.439-1.328-.816-2.964-1.129-4.907-.36-1.713-.669-3.294-.929-4.744-.259-1.449-.569-2.73-.929-3.84-.401.134-.892.192-1.475.176-.583-.017-1.112-.008-1.588.025-.301 1.042-.565 2.184-.791 3.426-.226 1.242-.414 2.51-.565 3.803-.132 1.43-.257 2.988-.376 4.675-.119 1.687-.345 2.605-.678 2.755-.425.179-.868.26-1.33.245-.462-.016-.805-.147-1.029-.395-.511-.873-.744-1.85-.697-2.93.047-1.08.129-2.145.245-3.194.1-1.42.301-2.909.602-4.468.301-1.558.552-3.098.753-4.618.098-.758.387-2.21.866-4.356s.962-4.257 1.446-6.331c.485-2.074.785-3.381.9-3.921.145-.894.346-1.912.602-3.055.257-1.143.602-2.068 1.037-2.776.435-.708.993-.856 1.673-.444zm-1.456 13.704c-.169.781-.307 1.465-.414 2.052l-.339 1.864c.372.025.669.063.891.113.222.05.544-.038.966-.264-.001-.684-.062-1.65-.182-2.899s-.294-1.989-.521-2.221c-.058.019-.131.207-.22.565s-.15.621-.182.791z"/>
        <path d="M199.603 7.114c.305.049.604.442.896 1.181.292.738.554 1.53.785 2.374.231.844.407 1.45.528 1.816.083.197.181.456.295.778.114.322.2.581.257.778.179.456.373.975.584 1.556.21.581.417.899.621.954.228-.077.619-.675 1.173-1.794s1.105-2.293 1.653-3.523.928-2.051 1.14-2.463l.389-.653c.092-.161.197-.278.314-.351.368-.199.749-.266 1.142-.201.393.065.699.249.916.552.201.211.264.743.188 1.594-.075.851-.138 1.659-.188 2.422-.15 4.846-.265 9.95-.345 15.31-.081 5.361-.133 10.514-.157 15.461-.009.517-.141.889-.395 1.117-.254.228-.574.374-.96.439-.337.091-.655.072-.954-.056-.299-.129-.517-.311-.653-.546-.156-.398-.208-1.02-.157-1.864.051-.844.087-1.628.107-2.353 0-1.872.022-4.247.065-7.126.043-2.879.106-5.775.188-8.688.082-2.913.182-5.355.299-7.327-.205.089-.423.338-.653.747-.23.409-.749 1.348-1.556 2.817-.57.885-.949 1.387-1.136 1.506-.187.119-.378.119-.571 0-.557-.216-1.099-.838-1.625-1.864-.526-1.026-.854-1.76-.985-2.202-.139-.357-.237-.585-.295-.684-.058-.099-.143-.189-.257-.27-.004 1.093-.021 2.007-.05 2.742-.029.735-.046 1.511-.05 2.328-.001 1.343-.024 2.786-.069 4.33-.045 1.544-.106 3.112-.182 4.706-.061 1.692-.077 3.34-.05 4.945.027 1.604.01 3.102-.05 4.493-.015.824-.048 1.648-.1 2.472-.052.824-.337 1.372-.853 1.644-.335.15-.644.189-.929.119-.284-.07-.494-.244-.627-.521-.297-1.03-.431-2.157-.402-3.382.029-1.225.046-2.54.05-3.947-.011-.83-.04-1.667-.088-2.51-.048-.843-.052-1.68-.013-2.51.185-3.533.292-7.047.32-10.542.028-3.495.072-6.708.132-9.638-.073-1.196-.065-2.242.025-3.137s.851-1.238 2.284-1.029z"/>
        <path d="M214.96 11.883c.013 2.014.138 4.06.376 6.137s.364 4.148.376 6.212c.707.103 1.301.274 1.782.515.481.241.673.688.577 1.343-.087.482-.315.823-.684 1.023-.369.2-.81.378-1.324.533.225 2.319.39 4.646.496 6.984.106 2.337.309 4.628.609 6.871.859-.232 1.764-.345 2.717-.339.953.006 1.771.169 2.453.489.319.274.371.717.157 1.33-.214.613-.501.956-.86 1.029-1.132.125-2.257.238-3.376.339-1.119.1-2.219.188-3.301.264-.724-.082-1.171-.458-1.343-1.129-.172-.671-.243-1.148-.213-1.431-.06-.733-.185-2.525-.374-5.377s-.38-5.882-.574-9.091c-.194-3.209-.33-5.715-.407-7.519-.054-1.159-.134-2.292-.238-3.401-.105-1.109-.209-2.167-.314-3.175-.116-1.152-.085-2.098.094-2.836s.599-1.282 1.261-1.631c.66-.294 1.612-.522 2.855-.684 1.243-.162 2.283-.302 3.119-.42.928-.128 1.607.015 2.039.427.432.412.472.956.119 1.631-.653.873-1.556 1.273-2.711 1.198-1.155-.074-2.259.162-3.313.709z"/>
        <path d="M242.014 6.612c.403.072.777.166 1.123.282.346.116.658.273.935.471.178 1.408.211 2.859.1 4.355-.111 1.496-.228 3.022-.351 4.581-.316 4.543-.55 9.236-.703 14.081-.153 4.844-.588 9.387-1.305 13.629-.179.213-.361.339-.546.376-.185.038-.355.063-.508.075-.2.031-.403.056-.609.075-.206.019-.421-.006-.646-.075-.515-.226-.891-.904-1.129-2.033s-.414-2.108-.527-2.937c-.592-2.865-1.127-5.894-1.606-9.086-.479-3.192-.964-6.07-1.456-8.634-.378 2.24-.652 4.637-.822 7.191-.17 2.554-.382 5.076-.634 7.567-.104 1.034-.198 2.053-.282 3.056-.085 1.003-.292 2.109-.621 3.319-.424.291-.919.575-1.487.853-.568.278-1.076.161-1.525-.351-.223-1.241-.627-3.468-1.21-6.683-.583-3.214-1.211-6.672-1.883-10.372-.672-3.701-1.253-6.901-1.742-9.6-.489-2.7-.752-4.155-.787-4.367-.109-.886-.18-1.925-.213-3.119-.034-1.193.172-2.044.615-2.554.267-.384.574-.495.922-.333.348.162.643.491.885.985.926 3.184 1.71 6.705 2.353 10.56.643 3.856 1.315 8.066 2.014 12.631.199-2.357.379-4.219.54-5.585.161-1.366.316-2.851.464-4.455.123-1.477.312-3.102.567-4.873.255-1.771.541-3.358.857-4.761.316-1.403.628-2.291.935-2.664.235-.289.442-.502.621-.64s.424-.125.734.038c.46.328.795 1.014 1.004 2.058.209 1.044.393 1.981.552 2.811.589 2.68 1.105 5.351 1.55 8.013.444 2.662.898 5.646 1.362 8.954.28-3.197.561-6.767.841-10.711.28-3.944.535-7.451.766-10.523.014-.224.112-.504.295-.841.183-.337.369-.592.558-.766z"/>
        <path d="M255.918 22.726c.026 1.152.024 2.299-.006 3.439-.03 1.14-.095 2.286-.195 3.439-.06 1.003-.141 2.059-.245 3.169-.104 1.11-.173 2.279-.207 3.508-.043 1.2-.158 2.327-.345 3.382-.187 1.055-.49 1.919-.91 2.591-.325.503-.779.978-1.362 1.424-.583.447-1.149.708-1.7.784-1.186.098-2.202-.098-3.05-.59-.847-.492-1.487-1.115-1.92-1.87-.259-.394-.494-.81-.703-1.249-.209-.438-.343-.942-.402-1.512-.053-.401-.097-.867-.132-1.399s-.041-.986-.019-1.362c.112-1.774.177-3.71.195-5.81.018-2.1.07-4.263.157-6.488.066-1.033.085-2.079.057-3.137-.028-1.058-.047-2.104-.057-3.137-.023-1.553.01-3.015.1-4.386.09-1.371.374-2.519.853-3.445.288-.501.679-.98 1.173-1.437.495-.457 1.024-.748 1.588-.872 1.538-.261 2.791-.178 3.759.251.967.429 1.756 1.115 2.366 2.058.147.31.329 1.033.546 2.171.216 1.138.336 2.037.358 2.698.004 1.159.021 2.43.05 3.815.029 1.385.046 2.707.05 3.966zm-3.815-10.993c-.17-.279-.482-.524-.935-.734-.453-.21-.928-.216-1.424-.019-1.116.516-1.733 1.48-1.851 2.893-.118 1.413-.12 3.042-.006 4.888.086 2.27.102 4.607.05 7.009-.052 2.402-.086 4.651-.1 6.745-.135 2.059-.179 3.94-.132 5.641.047 1.702.995 2.616 2.842 2.742.926-.157 1.409-1.01 1.449-2.56.041-1.55.11-2.855.207-3.915.232-1.365.404-3.477.515-6.336.111-2.859.175-5.607.191-8.244.016-2.636-.002-4.302-.054-4.998-.041-.516-.11-1.015-.207-1.5-.097-.484-.279-1.022-.546-1.613z"/>
        <path d="M266.565 22.324c.603.866 1.204 1.807 1.801 2.824s1.034 2.184 1.311 3.501c.268 1.547.435 3.272.502 5.177.067 1.904.084 3.743.05 5.516.011.919.026 1.766.044 2.541.018.775-.03 1.233-.144 1.374-.314.58-.778.951-1.393 1.111-.615.16-1.155-.21-1.619-1.111-.188-.398-.264-1.095-.226-2.09.038-.995-.038-3.21-.226-6.645.013-2.053-.151-3.858-.489-5.415-.339-1.557-.929-2.898-1.769-4.022-.333-.528-.734-.978-1.205-1.349-.471-.371-1.123-.507-1.958-.408.034 2.749.004 5.584-.088 8.502-.092 2.919-.146 5.69-.163 8.314-.09 2.209-.588 3.589-1.493 4.141-.906.552-1.68.276-2.322-.828-.069-3.771-.019-7.511.151-11.219.169-3.708.27-7.348.301-10.918-.019-1.657-.07-3.541-.152-5.65-.082-2.109-.081-3.937.004-5.483.085-1.546.369-2.303.852-2.27.293-.304 1.235-.466 2.828-.487 1.592-.021 3.282.214 5.07.706 1.788.492 3.121 1.356 3.999 2.592.973 1.689 1.337 3.394 1.092 5.114-.245 1.72-.91 3.111-1.995 4.173-.404.545-.876.999-1.418 1.362-.542.363-.989.679-1.343.947zm-5.522-3.815c.053.235.488.368 1.303.398.816.03 1.692-.045 2.631-.227.938-.182 1.618-.473 2.04-.874.357-.458.622-1.261.797-2.41.175-1.148.076-2.002-.295-2.56-.403-.478-1.147-.894-2.233-1.249-1.085-.355-2.101-.593-3.047-.714-.946-.121-1.411-.069-1.396.156-.08.118-.115.646-.104 1.582.011.936.047 1.973.108 3.11.061 1.137.127 2.066.197 2.787z"/>
        <path d="M278.045 22.324c.84 1.476 1.53 2.78 2.069 3.914.539 1.134 1.106 2.479 1.701 4.036.595 1.557 1.396 3.71 2.404 6.457.175.362.49 1.219.947 2.573.457 1.353.61 2.537.458 3.552-.174.528-.542.865-1.104 1.01-.563.145-1.031.093-1.406-.157-.571-.367-.935-.737-1.092-1.111-.157-.373-.295-.806-.414-1.299-.702-2.522-1.469-4.97-2.303-7.341-.834-2.372-1.739-4.744-2.717-7.116-.44 2.78-.652 5.516-.634 8.207.018 2.692.045 5.679.082 8.96-.138.598-.69.908-1.657.929-.966.021-1.518-.222-1.657-.728-.096-5.088.059-10.561.464-16.421.406-5.86.586-11.245.54-16.158-.03-.451-.045-.867-.044-1.249.001-.382.049-.735.144-1.06.172-.619.519-1.088 1.042-1.406.523-.318 1.096-.234 1.719.251.115 1.26.186 2.63.213 4.11.027 1.48.073 2.887.138 4.223.938-.874 1.76-2.225 2.466-4.054.706-1.828 1.54-3.254 2.504-4.279.303-.238.738-.414 1.305-.527.567-.113.952.063 1.155.527.127.533.024 1.186-.307 1.958-.332.772-.597 1.324-.797 1.657-.977 2.108-1.784 3.853-2.422 5.233-.638 1.38-1.571 3.15-2.799 5.308z"/>
    </g>
    <g>
        <g transform="matrix(.139 0 0 .139 .515 .638)">
            <path d="M226.236 110.236c-8.719 25.041-18.495 53.089-50.484 70.844 13.312 3.199 24.758 6.693 35.018 10.648 28.037 10.812 46.155 24.975 55.393 43.291 10.9 21.627 9.186 48.246-5.307 81.027 62.35-43.771 91.59-103.359 80.559-165.543-5.977-33.689-23.494-64.102-48.574-87.324-47.749-7.096-55.659 15.621-66.605 47.057z" fill="#95b6bf"/>
            <path d="M123.847 171.358c13.746 2.056 25.991 4.178 37.049 6.437l-.012-.025c37.2-15.409 47.417-44.751 56.431-70.642 10.011-28.754 19.522-56.054 62.785-54.625-20.102-15.243-43.924-26.285-69.908-31.577-10.571-2.154-20.955-3.246-30.867-3.246-64.502 0-102.732 46.044-105.954 89.368-2.017 27.137 10.183 58.281 50.476 64.31zm43.043-79.741c15.553 0 28.165 12.608 28.165 28.16 0 15.554-12.609 28.162-28.165 28.162s-28.164-12.607-28.164-28.162c0-15.551 12.609-28.16 28.164-28.16z" fill="#ff80c3"/>
            <circle cx="166.89" cy="119.778" r="28.161" fill="#073642"/>
        </g>
        <g>
            <path d="M15.411 33.616c-2.078-2.94-2.918-6.357-2.435-9.67-2.509-1.844-3.845-4.867-3.573-8.527.122-1.641.571-3.308 1.326-4.887-2.144.601-4.324 1.712-6.517 3.327l-.703.439-.61.7c-.14.296-.275.595-.404.897-1.275 3.003-1.98 6.307-1.98 9.775s.706 6.772 1.98 9.775c.128.303.264.601.404.898.394.835.833 1.645 1.313 2.427 2.178 3.541 5.212 6.498 8.815 8.583.841.487 1.714.925 2.613 1.313l.425.178c2.482 1.017 5.163 1.646 7.968 1.813l1.479-1.526.362-1.779c1.078-2.231 1.932-4.525 2.554-6.857-5.097-.084-10.066-2.703-13.018-6.881z" fill="#80cfff"/>
            <g>
                <path d="M41.22 9.42c-6.637-.987-7.736 2.171-9.258 6.541-1.212 3.481-2.571 7.379-7.017 9.847 1.85.445 3.441.93 4.868 1.48 3.897 1.503 6.416 3.472 7.7 6.017 1.515 3.006 1.277 6.706-.738 11.263 8.667-6.084 12.731-14.367 11.198-23.01-.831-4.682-3.266-8.91-6.752-12.138z" fill="none"/>
                <path d="M22.88 25.352l-.002-.003c5.171-2.142 6.591-6.22 7.844-9.819 1.392-3.997 2.714-7.792 8.727-7.593-2.794-2.119-6.105-3.654-9.717-4.389-1.469-.299-2.913-.451-4.291-.451-8.966 0-14.28 6.4-14.728 12.422-.281 3.772 1.415 8.101 7.016 8.939 1.911.286 3.613.581 5.15.895z" fill="none"/>
                <path d="M32.447 34.81c-.616-1.672-.772-3.52-.362-5.011-.38-.214-.777-.418-1.188-.612-.439 1.373-.461 2.991-.122 4.573.145.677.356 1.347.629 1.989-1.297-.719-2.257-1.591-2.945-2.395-1.452-1.695-2.306-3.808-2.437-5.911-2.694-.736-5.624-1.259-8.486-1.687-1.234-.185-2.352-.545-3.339-1.054-.28 2.804.498 5.624 2.287 8.157 2.759 3.904 7.433 6.33 12.199 6.33h.001c2.536 0 5.041-.688 7.342-2.003-.996-.116-1.891-.322-2.695-.592-.357-.551-.653-1.155-.884-1.784z" fill="#a9bebf"/>
                <path d="M49.778 19.376c-2.232-8.617-8.938-15.432-17.491-17.818-2.145-.599-4.405-.92-6.741-.92-2.336 0-4.596.321-6.741.92-5.921 1.652-10.957 5.427-14.236 10.453-.622.954-1.181 1.952-1.67 2.989 0 0 .81-.777 1.314-1.139 2.193-1.615 4.373-2.726 6.517-3.327-.755 1.579-1.204 3.246-1.326 4.887-.272 3.66 1.063 6.683 3.573 8.527-.483 3.312.357 6.729 2.435 9.67 2.952 4.178 7.921 6.797 13.018 6.881-.622 2.332-1.476 4.626-2.554 6.857 0 0-.991 1.934-1.841 3.305.5.03 1.004.047 1.512.047 3.356 0 6.556-.662 9.481-1.86 7.228-2.961 12.764-9.204 14.752-16.878.521-2.012.799-4.121.799-6.296s-.278-4.285-.799-6.296zm-39.065-3.858c.448-6.022 5.762-12.422 14.728-12.422 1.378 0 2.821.152 4.291.451 3.612.736 6.923 2.27 9.717 4.389-6.014-.199-7.336 3.596-8.727 7.593-1.253 3.599-2.673 7.677-7.844 9.819l.002.003c-1.537-.314-3.239-.609-5.15-.895-5.601-.838-7.297-5.167-7.016-8.939zm17.97 23.67h-.001c-4.766 0-9.44-2.425-12.199-6.33-1.789-2.532-2.567-5.352-2.287-8.157.987.509 2.104.869 3.339 1.054 2.862.428 5.792.951 8.486 1.687.131 2.103.985 4.216 2.437 5.911.688.803 1.648 1.676 2.945 2.395-.273-.642-.484-1.312-.629-1.989-.339-1.583-.316-3.2.122-4.573.411.194.808.398 1.188.612-.41 1.491-.254 3.339.362 5.011.232.629.528 1.233.885 1.784.804.269 1.698.476 2.695.592-2.301 1.316-4.807 2.003-7.343 2.003zm8.09 5.381c2.014-4.556 2.253-8.256.738-11.263-1.284-2.546-3.802-4.515-7.7-6.018-1.426-.55-3.017-1.035-4.867-1.48 4.446-2.468 5.806-6.367 7.017-9.847 1.521-4.37 2.621-7.527 9.258-6.541 3.486 3.228 5.921 7.455 6.752 12.138 1.533 8.643-2.531 16.926-11.197 23.01z" fill="#073642"/>
            </g>
        </g>
    </g>
</svg>
