<svg xmlns="http://www.w3.org/2000/svg" viewBox="0 0 360 360">
    <path fill="#95B6BF" d="M226.236 110.236c-8.719 25.041-18.495 53.089-50.484 70.844 13.312 3.199 24.758 6.693 35.018 10.648 28.037 10.812 46.155 24.975 55.393 43.291 10.9 21.627 9.186 48.246-5.307 81.027 62.35-43.771 91.59-103.359 80.559-165.543-5.977-33.689-23.494-64.102-48.574-87.324-47.749-7.096-55.659 15.621-66.605 47.057z"/>
    <path fill="#FF80C3" d="M123.847 171.358c13.746 2.056 25.991 4.178 37.049 6.437l-.012-.025c37.2-15.409 47.417-44.751 56.431-70.642 10.011-28.754 19.522-56.054 62.785-54.625-20.102-15.243-43.924-26.285-69.908-31.577-10.571-2.154-20.955-3.246-30.867-3.246-64.502 0-102.732 46.044-105.954 89.368-2.017 27.137 10.183 58.281 50.476 64.31zm43.043-79.741c15.553 0 28.165 12.608 28.165 28.16 0 15.554-12.609 28.162-28.165 28.162s-28.164-12.607-28.164-28.162c0-15.551 12.609-28.16 28.164-28.16z"/>
    <circle fill="#073642" cx="166.89" cy="119.778" r="28.161"/>
    <path fill="#80CFFF" d="M107.167 237.255c-14.947-21.153-20.991-45.737-17.515-69.565-18.053-13.265-27.662-35.016-25.704-61.343.877-11.808 4.107-23.8 9.536-35.158-15.427 4.322-31.11 12.318-46.884 23.937l-5.059 3.156-4.391 5.039c-1.006 2.131-1.979 4.28-2.903 6.456-9.171 21.607-14.247 45.371-14.247 70.325 0 24.953 5.076 48.718 14.248 70.322.924 2.178 1.897 4.326 2.903 6.457 2.835 6.01 5.991 11.837 9.449 17.457 15.67 25.473 37.497 46.75 63.415 61.75 6.052 3.503 12.328 6.658 18.8 9.449 1.015.438 2.035.865 3.06 1.283 17.853 7.314 37.143 11.839 57.327 13.044l10.641-10.978 2.607-12.8c7.756-16.05 13.897-32.553 18.375-49.33-36.672-.604-72.42-19.447-93.658-49.501z"/>
    <path d="M292.839 63.181c-47.747-7.098-55.657 15.619-66.603 47.055-8.719 25.041-18.495 53.089-50.484 70.844 13.312 3.199 24.758 6.693 35.018 10.648 28.037 10.812 46.155 24.975 55.393 43.291 10.9 21.627 9.186 48.246-5.307 81.027 62.35-43.771 91.59-103.359 80.559-165.543-5.977-33.687-23.496-64.1-48.576-87.322zM160.896 177.795l-.012-.025c37.2-15.409 47.417-44.751 56.431-70.642 10.011-28.754 19.522-56.054 62.785-54.625-20.102-15.243-43.924-26.285-69.908-31.577-10.571-2.154-20.955-3.246-30.867-3.246-64.502 0-102.732 46.044-105.954 89.368-2.018 27.136 10.183 58.281 50.476 64.31 13.745 2.056 25.991 4.178 37.049 6.437z" fill="none"/>
    <path fill="#A9BEBF" d="M229.729 245.839c-4.432-12.028-5.556-25.321-2.604-36.051-2.734-1.542-5.589-3.007-8.546-4.404-3.155 9.88-3.317 21.515-.881 32.899 1.04 4.869 2.56 9.688 4.524 14.309-9.334-5.172-16.236-11.445-21.189-17.227-10.449-12.195-16.592-27.397-17.534-42.525-19.378-5.296-40.461-9.057-61.05-12.135-8.88-1.329-16.92-3.92-24.019-7.583-2.014 20.175 3.582 40.463 16.455 58.68 19.848 28.089 53.476 45.536 87.764 45.536h.006c18.242-.002 36.267-4.947 52.822-14.412-7.166-.834-13.604-2.318-19.385-4.256-2.565-3.962-4.697-8.306-6.363-12.831z"/>
    <path fill="#073642" d="M354.412 134.804c-16.058-61.994-64.305-111.02-125.836-128.188-15.43-4.306-31.693-6.616-48.497-6.616-16.803 0-33.065 2.31-48.495 6.616-42.6 11.885-78.824 39.043-102.416 75.2-4.476 6.86-8.495 14.042-12.017 21.506 0 0 5.826-5.589 9.45-8.195 15.774-11.619 31.458-19.615 46.884-23.937-5.429 11.358-8.659 23.35-9.536 35.158-1.958 26.328 7.65 48.078 25.704 61.343-3.476 23.829 2.568 48.413 17.515 69.565 21.238 30.055 56.986 48.896 93.657 49.503-4.478 16.777-10.619 33.28-18.375 49.33 0 0-7.126 13.916-13.248 23.776 3.6.217 7.225.338 10.878.338 24.143 0 47.168-4.764 68.207-13.383 52.001-21.301 91.826-66.217 106.126-121.422 3.75-14.474 5.747-29.651 5.747-45.296-.001-15.645-1.998-30.825-5.748-45.298zm-281.041-27.756c3.222-43.324 41.452-89.368 105.954-89.368 9.911 0 20.295 1.092 30.868 3.246 25.984 5.292 49.807 16.334 69.909 31.577-43.264-1.429-52.775 25.871-62.787 54.625-9.012 25.891-19.229 55.233-56.43 70.642l.012.025c-11.058-2.259-23.304-4.381-37.049-6.437-40.294-6.029-52.494-37.173-50.477-64.31zm129.281 170.29h-.004c-34.289 0-67.917-17.447-87.765-45.536-12.873-18.217-18.469-38.505-16.455-58.68 7.099 3.663 15.139 6.254 24.019 7.583 20.588 3.078 41.671 6.839 61.05 12.135.941 15.128 7.085 30.33 17.534 42.525 4.952 5.779 11.854 12.055 21.188 17.227-1.965-4.619-3.482-9.438-4.523-14.309-2.438-11.387-2.274-23.021.881-32.899 2.957 1.397 5.812 2.862 8.546 4.404-2.952 10.729-1.828 24.022 2.603 36.051 1.668 4.525 3.801 8.869 6.364 12.831 5.781 1.938 12.218 3.422 19.386 4.256-16.556 9.465-34.58 14.41-52.824 14.412zm58.203 38.71c14.49-32.78 16.207-59.399 5.306-81.026-9.236-18.317-27.354-32.479-55.394-43.293-10.259-3.955-21.703-7.449-35.017-10.647 31.989-17.754 41.767-45.803 50.485-70.844 10.945-31.438 18.855-54.154 66.603-47.056 25.08 23.222 42.6 53.635 48.574 87.324 11.032 62.182-18.208 121.769-80.557 165.542z"/>
</svg>
