<?xml version="1.0" encoding="utf-8"?>
<!-- Generator: Adobe Illustrator 15.1.0, SVG Export Plug-In . SVG Version: 6.00 Build 0)  -->
<!DOCTYPE svg PUBLIC "-//W3C//DTD SVG 1.1//EN" "http://www.w3.org/Graphics/SVG/1.1/DTD/svg11.dtd">
<svg version="1.1" id="Layer_1" xmlns="http://www.w3.org/2000/svg" xmlns:xlink="http://www.w3.org/1999/xlink" x="0px" y="0px"
	 width="360px" height="360px" viewBox="0 0 360 360" enable-background="new 0 0 360 360" xml:space="preserve">
<g>
	<g>
		<path fill="#95B6BF" d="M226.236,110.236c-8.719,25.041-18.495,53.089-50.484,70.844c13.312,3.199,24.758,6.693,35.018,10.648
			c28.037,10.812,46.155,24.975,55.393,43.291c10.9,21.627,9.186,48.246-5.307,81.027c62.35-43.771,91.59-103.359,80.559-165.543
			c-5.977-33.689-23.494-64.102-48.574-87.324C245.092,56.083,237.182,78.8,226.236,110.236z"/>
		<path fill="#FF80C3" d="M123.847,171.358c13.746,2.056,25.991,4.178,37.049,6.437l-0.012-0.025
			c37.2-15.409,47.417-44.751,56.431-70.642c10.011-28.754,19.522-56.054,62.785-54.625c-20.102-15.243-43.924-26.285-69.908-31.577
			c-10.571-2.154-20.955-3.246-30.867-3.246c-64.502,0-102.732,46.044-105.954,89.368
			C71.354,134.185,83.554,165.329,123.847,171.358z M166.89,91.617c15.553,0,28.165,12.608,28.165,28.16
			c0,15.554-12.609,28.162-28.165,28.162s-28.164-12.607-28.164-28.162C138.726,104.226,151.335,91.617,166.89,91.617z"/>
		<circle fill="#073642" cx="166.89" cy="119.778" r="28.161"/>
	</g>
	<g>
		<path fill="#80CFFF" d="M107.167,237.255c-14.947-21.153-20.991-45.737-17.515-69.565c-18.053-13.265-27.662-35.016-25.704-61.343
			c0.877-11.808,4.107-23.8,9.536-35.158C58.057,75.511,42.374,83.507,26.6,95.126l-5.059,3.156l-4.391,5.039
			c-1.006,2.131-1.979,4.28-2.903,6.456C5.076,131.384,0,155.148,0,180.102c0,24.953,5.076,48.718,14.248,70.322
			c0.924,2.178,1.897,4.326,2.903,6.457c2.835,6.01,5.991,11.837,9.449,17.457c15.67,25.473,37.497,46.75,63.415,61.75
			c6.052,3.503,12.328,6.658,18.8,9.449c1.015,0.438,2.035,0.865,3.06,1.283c17.853,7.314,37.143,11.839,57.327,13.044
			l10.641-10.978l2.607-12.8c7.756-16.05,13.897-32.553,18.375-49.33C164.153,286.152,128.405,267.309,107.167,237.255z"/>
		<g>
			<path fill="none" d="M292.839,63.181c-47.747-7.098-55.657,15.619-66.603,47.055c-8.719,25.041-18.495,53.089-50.484,70.844
				c13.312,3.199,24.758,6.693,35.018,10.648c28.037,10.812,46.155,24.975,55.393,43.291c10.9,21.627,9.186,48.246-5.307,81.027
				c62.35-43.771,91.59-103.359,80.559-165.543C335.438,116.816,317.919,86.403,292.839,63.181z"/>
			<path fill="none" d="M160.896,177.795l-0.012-0.025c37.2-15.409,47.417-44.751,56.431-70.642
				c10.011-28.754,19.522-56.054,62.785-54.625c-20.102-15.243-43.924-26.285-69.908-31.577
				c-10.571-2.154-20.955-3.246-30.867-3.246c-64.502,0-102.732,46.044-105.954,89.368c-2.018,27.136,10.183,58.281,50.476,64.31
				C137.592,173.414,149.838,175.536,160.896,177.795z"/>
			<path fill="#A9BEBF" d="M229.729,245.839c-4.432-12.028-5.556-25.321-2.604-36.051c-2.734-1.542-5.589-3.007-8.546-4.404
				c-3.155,9.88-3.317,21.515-0.881,32.899c1.04,4.869,2.56,9.688,4.524,14.309c-9.334-5.172-16.236-11.445-21.189-17.227
				c-10.449-12.195-16.592-27.397-17.534-42.525c-19.378-5.296-40.461-9.057-61.05-12.135c-8.88-1.329-16.92-3.92-24.019-7.583
				c-2.014,20.175,3.582,40.463,16.455,58.68c19.848,28.089,53.476,45.536,87.764,45.536c0.002,0,0.004,0,0.006,0
				c18.242-0.002,36.267-4.947,52.822-14.412c-7.166-0.834-13.604-2.318-19.385-4.256
				C233.527,254.708,231.395,250.364,229.729,245.839z"/>
			<path fill="#073642" d="M354.412,134.804C338.354,72.81,290.107,23.784,228.576,6.616C213.146,2.31,196.883,0,180.079,0
				c-16.803,0-33.065,2.31-48.495,6.616c-42.6,11.885-78.824,39.043-102.416,75.2c-4.476,6.86-8.495,14.042-12.017,21.506
				c0,0,5.826-5.589,9.45-8.195C42.375,83.508,58.059,75.512,73.485,71.19c-5.429,11.358-8.659,23.35-9.536,35.158
				c-1.958,26.328,7.65,48.078,25.704,61.343c-3.476,23.829,2.568,48.413,17.515,69.565c21.238,30.055,56.986,48.896,93.657,49.503
				c-4.478,16.777-10.619,33.28-18.375,49.33c0,0-7.126,13.916-13.248,23.776c3.6,0.217,7.225,0.338,10.878,0.338
				c24.143,0,47.168-4.764,68.207-13.383c52.001-21.301,91.826-66.217,106.126-121.422c3.75-14.474,5.747-29.651,5.747-45.296
				C360.159,164.457,358.162,149.277,354.412,134.804z M73.371,107.048c3.222-43.324,41.452-89.368,105.954-89.368
				c9.911,0,20.295,1.092,30.868,3.246C236.177,26.218,260,37.26,280.102,52.503c-43.264-1.429-52.775,25.871-62.787,54.625
				c-9.012,25.891-19.229,55.233-56.43,70.642l0.012,0.025c-11.058-2.259-23.304-4.381-37.049-6.437
				C83.554,165.329,71.354,134.185,73.371,107.048z M202.652,277.338c-0.002,0-0.004,0-0.004,0
				c-34.289,0-67.917-17.447-87.765-45.536c-12.873-18.217-18.469-38.505-16.455-58.68c7.099,3.663,15.139,6.254,24.019,7.583
				c20.588,3.078,41.671,6.839,61.05,12.135c0.941,15.128,7.085,30.33,17.534,42.525c4.952,5.779,11.854,12.055,21.188,17.227
				c-1.965-4.619-3.482-9.438-4.523-14.309c-2.438-11.387-2.274-23.021,0.881-32.899c2.957,1.397,5.812,2.862,8.546,4.404
				c-2.952,10.729-1.828,24.022,2.603,36.051c1.668,4.525,3.801,8.869,6.364,12.831c5.781,1.938,12.218,3.422,19.386,4.256
				C238.92,272.391,220.896,277.336,202.652,277.338z M260.855,316.048c14.49-32.78,16.207-59.399,5.306-81.026
				c-9.236-18.317-27.354-32.479-55.394-43.293c-10.259-3.955-21.703-7.449-35.017-10.647
				c31.989-17.754,41.767-45.803,50.485-70.844C237.18,78.8,245.09,56.084,292.838,63.182c25.08,23.222,42.6,53.635,48.574,87.324
				C352.444,212.688,323.204,272.275,260.855,316.048z"/>
		</g>
	</g>
</g>
</svg>
